<svg width="32" height="32" viewBox="0 0 32 32" fill="none" xmlns="http://www.w3.org/2000/svg">
<path fill-rule="evenodd" clip-rule="evenodd" d="M13.3333 2.66699C12.2287 2.66699 11.3333 3.56243 11.3333 4.66699H8.66666C7.56206 4.66699 6.66666 5.56243 6.66666 6.66699V27.3337C6.66666 28.4383 7.56206 29.3337 8.66666 29.3337H23.3333C24.4379 29.3337 25.3333 28.4383 25.3333 27.3337V6.66699C25.3333 5.56243 24.4379 4.66699 23.3333 4.66699H20.6667C20.6667 3.56243 19.7713 2.66699 18.6667 2.66699H13.3333ZM12.6667 4.66699C12.6667 4.29881 12.9651 4.00033 13.3333 4.00033H18.6667C19.0349 4.00033 19.3333 4.29881 19.3333 4.66699V6.00033C19.3333 6.36851 19.0349 6.66699 18.6667 6.66699H13.3333C12.9651 6.66699 12.6667 6.36851 12.6667 6.00033V4.66699ZM12.6667 10.0003V12.0003H10.6667V13.3337H12.6667V15.3337H14V13.3337H16V12.0003H14V10.0003H12.6667ZM11.3333 17.3337C10.9651 17.3337 10.6667 17.6321 10.6667 18.0003C10.6667 18.3685 10.9651 18.667 11.3333 18.667H20.6667C21.0349 18.667 21.3333 18.3685 21.3333 18.0003C21.3333 17.6321 21.0349 17.3337 20.6667 17.3337H11.3333ZM10.6667 21.3337C10.6667 20.9655 10.9651 20.667 11.3333 20.667H20.6667C21.0349 20.667 21.3333 20.9655 21.3333 21.3337C21.3333 21.7019 21.0349 22.0003 20.6667 22.0003H11.3333C10.9651 22.0003 10.6667 21.7019 10.6667 21.3337ZM11.3333 24.0003C10.9651 24.0003 10.6667 24.2988 10.6667 24.667C10.6667 25.0352 10.9651 25.3337 11.3333 25.3337H20.6667C21.0349 25.3337 21.3333 25.0352 21.3333 24.667C21.3333 24.2988 21.0349 24.0003 20.6667 24.0003H11.3333Z" fill="url(#paint0_linear_160_1803)"/>
<defs>
<linearGradient id="paint0_linear_160_1803" x1="17.5778" y1="41.6793" x2="-6.31969" y2="16.1338" gradientUnits="userSpaceOnUse">
<stop stop-color="#C52226"/>
<stop offset="1" stop-color="#FB6262"/>
</linearGradient>
</defs>
</svg>
