<svg width="335" height="342" viewBox="0 0 335 342" fill="none" xmlns="http://www.w3.org/2000/svg">
<g clip-path="url(#clip0_160_1838)">
<g clip-path="url(#clip1_160_1838)">
<path d="M42.4194 265.42C41.4728 260.915 46.4019 258.614 49.5683 257.243C54.2689 255.203 58.6431 252.803 59.4918 247.45C56.0153 246.944 50.3191 246.699 47.577 249.392C53.1754 243.614 56.9293 235.796 54.3505 227.603C49.8457 228.615 45.7164 230.231 43.0233 234.115C41.2932 236.612 38.1432 242.178 39.4815 245.132C38.29 241.035 37.0006 238.914 36.2498 235.976C32.3 240.938 27.9421 246.03 31.0106 252.705C33.4915 258.092 40.5751 259.756 42.4194 265.42Z" fill="#E1DCD6"/>
<path d="M45.7164 242.113C45.7164 242.113 45.5858 242.194 45.3573 242.341C45.2431 242.423 45.0962 242.504 44.9329 242.619C44.7697 242.749 44.5902 242.896 44.3943 243.076C44.0026 243.451 43.5783 243.924 43.1539 244.561C42.9417 244.871 42.7458 245.214 42.5337 245.589C42.3541 245.964 42.1419 246.356 41.9951 246.797C41.636 247.646 41.3585 248.609 41.13 249.637C40.9015 250.665 40.7383 251.759 40.6567 252.901C40.5751 254.027 40.5588 255.268 40.6567 256.427C40.722 257.585 40.7873 258.777 40.8689 259.952C40.9015 260.54 40.9668 261.144 40.9831 261.715C40.9994 262.302 41.0158 262.874 41.0321 263.461C41.0321 264.033 41.0647 264.604 41.0974 265.175C41.0974 265.452 41.13 265.746 41.13 266.024V266.448L41.1627 266.546V266.595C41.1627 266.595 41.1627 266.546 41.1627 266.562V266.595V266.807C41.1463 267.085 41.13 267.362 41.13 267.64V268.048L41.0647 268.407C41.0321 268.635 40.9994 268.88 40.9668 269.109C40.9505 269.337 40.8362 269.566 40.7873 269.794C40.722 270.023 40.6567 270.251 40.5914 270.463C40.5098 270.675 40.3955 270.888 40.3139 271.1C40.216 271.312 40.1344 271.524 40.0528 271.72L40.0201 271.802C40.0201 271.802 40.0038 271.834 39.9875 271.851L39.9059 271.997C39.8569 272.095 39.7916 272.193 39.7427 272.291C39.6937 272.389 39.6284 272.487 39.5795 272.569C39.5142 272.65 39.4652 272.716 39.3999 272.797C39.2857 272.944 39.1877 273.107 39.0572 273.254C38.8123 273.548 38.5512 273.809 38.2901 274.038C37.7678 274.495 37.2618 274.886 36.8538 275.213C36.4457 275.539 36.1356 275.817 35.9234 275.996C35.7112 276.192 35.6133 276.29 35.6133 276.29C35.6133 276.29 35.7439 276.225 35.9887 276.078C36.2335 275.931 36.5926 275.768 37.0659 275.523C37.5229 275.278 38.1105 275.017 38.7307 274.609C39.0572 274.413 39.3673 274.168 39.71 273.891C39.8732 273.76 40.0365 273.581 40.1997 273.417C40.2813 273.336 40.3629 273.238 40.4445 273.156C40.5098 273.075 40.5751 272.977 40.6404 272.895C40.7056 272.814 40.7709 272.716 40.8525 272.634L40.9505 272.503C40.9505 272.503 40.9668 272.487 41.0158 272.406L41.0647 272.324C41.1953 272.112 41.3096 271.9 41.4401 271.687C41.5707 271.475 41.7013 271.247 41.8155 271.018C41.9134 270.773 42.0114 270.529 42.1093 270.267C42.2072 270.006 42.3378 269.761 42.3868 269.484C42.4521 269.206 42.5173 268.913 42.599 268.635L42.6969 268.195L42.7295 267.786C42.7622 267.509 42.7785 267.248 42.8111 266.97V266.758L42.8275 266.726V266.644V266.595V266.497V266.073C42.8275 265.795 42.8275 265.501 42.8275 265.208C42.8275 264.636 42.8275 264.049 42.8275 263.445C42.8275 262.857 42.8275 262.253 42.8111 261.666C42.8111 261.062 42.7459 260.474 42.7132 259.887C42.6153 258.712 42.5337 257.52 42.4357 256.361C42.3378 255.186 42.2562 254.125 42.2888 253.032C42.3215 251.955 42.3705 250.91 42.501 249.931C42.6479 248.951 42.7785 248.021 43.0233 247.205C43.2355 246.373 43.513 245.622 43.7904 244.985C44.0842 244.349 44.3943 243.81 44.6881 243.402C44.835 243.206 44.9819 243.027 45.0962 242.863C45.2267 242.716 45.3573 242.586 45.4552 242.488C45.6511 242.292 45.749 242.178 45.749 242.178L45.7164 242.113Z" fill="#E1DCD6"/>
<path d="M32.1858 201.357C34.226 198.893 37.6209 200.59 39.7427 201.716C42.8927 203.397 46.0918 204.736 49.3724 202.875C48.1483 200.753 45.8143 197.538 43.1539 197.228C48.7359 197.766 54.628 196.444 57.9739 191.483C55.4767 189.475 52.8 187.908 49.5193 188.137C47.3975 188.284 43.007 188.969 41.9787 190.977C43.6925 188.561 44.2964 186.929 45.5695 185.248C41.1463 185.248 36.4783 185.085 34.177 189.638C32.3163 193.327 34.4708 197.913 32.1858 201.373V201.357Z" fill="#E1DCD6"/>
<path d="M46.3203 193.066C46.3203 193.066 46.2224 193.033 46.0428 192.968C45.9449 192.935 45.847 192.886 45.7001 192.854C45.5532 192.821 45.3899 192.788 45.2104 192.756C44.835 192.707 44.3943 192.674 43.872 192.723C43.6109 192.739 43.3334 192.788 43.056 192.837C42.7785 192.903 42.4684 192.968 42.1583 193.066C41.5381 193.245 40.9015 193.506 40.2323 193.817C39.5795 194.127 38.9103 194.518 38.2411 194.975C37.5882 195.416 36.9027 195.938 36.3151 196.493C35.7112 197.032 35.091 197.587 34.4708 198.142C34.1607 198.419 33.8669 198.713 33.5568 198.974C33.2467 199.235 32.9366 199.496 32.6265 199.758C32.3163 200.019 32.0226 200.28 31.7288 200.541C31.5819 200.672 31.435 200.802 31.2881 200.933L31.0759 201.129L31.0269 201.178H30.9943C30.9943 201.178 31.0269 201.178 31.0106 201.178H30.9943L30.88 201.259C30.7168 201.373 30.5699 201.488 30.423 201.602L30.1945 201.765L29.9824 201.896C29.8355 201.977 29.6886 202.059 29.558 202.141C29.4274 202.239 29.2479 202.271 29.101 202.336C28.9541 202.402 28.7909 202.467 28.644 202.516C28.4971 202.565 28.3339 202.598 28.1707 202.647C28.0238 202.696 27.8605 202.728 27.7136 202.777H27.6647L27.632 202.793H27.5178C27.5178 202.793 27.3546 202.826 27.2893 202.842C27.224 202.859 27.1424 202.859 27.0608 202.875C26.9955 202.875 26.9302 202.875 26.8649 202.875C26.7344 202.875 26.6038 202.891 26.4732 202.875C26.2121 202.875 25.9509 202.842 25.7061 202.793C25.2328 202.712 24.7921 202.598 24.4493 202.516C24.0903 202.434 23.8128 202.385 23.6169 202.353C23.4211 202.32 23.3231 202.304 23.3231 202.304C23.3231 202.304 23.4211 202.336 23.6006 202.418C23.7801 202.483 24.0413 202.614 24.3677 202.761C24.6942 202.908 25.1022 203.104 25.5918 203.267C25.8367 203.365 26.1141 203.43 26.4079 203.495C26.5548 203.528 26.718 203.528 26.8812 203.561C26.9629 203.561 27.0445 203.561 27.1261 203.577C27.2077 203.577 27.273 203.577 27.3546 203.577C27.4362 203.577 27.5178 203.577 27.5831 203.577H27.6973C27.6973 203.577 27.7136 203.577 27.7789 203.577H27.8442C28.0074 203.544 28.187 203.528 28.3502 203.495C28.5297 203.463 28.7093 203.446 28.8888 203.414C29.0683 203.365 29.2479 203.316 29.4274 203.25C29.607 203.185 29.8028 203.153 29.9824 203.071C30.1619 202.989 30.3577 202.891 30.5373 202.81L30.8148 202.679L31.0596 202.532C31.2228 202.434 31.386 202.32 31.5492 202.222L31.6635 202.141L31.7288 202.108H31.7614L31.8267 202.043L32.0552 201.863C32.2184 201.733 32.3653 201.618 32.5285 201.488C32.855 201.243 33.1651 200.982 33.4915 200.721C33.8179 200.459 34.128 200.198 34.4545 199.937C34.7809 199.676 35.0747 199.399 35.3848 199.121C35.9887 198.566 36.5926 197.995 37.1965 197.44C37.7841 196.885 38.339 196.379 38.9429 195.922C39.5468 195.465 40.1344 195.041 40.722 194.682C41.3095 194.339 41.8808 194.012 42.4357 193.784C42.9907 193.539 43.513 193.36 43.9863 193.245C44.4596 193.131 44.884 193.066 45.2431 193.049C45.4226 193.049 45.5858 193.049 45.7164 193.049C45.8633 193.049 45.9775 193.066 46.0755 193.082C46.2713 193.098 46.3692 193.115 46.3692 193.115L46.3203 193.066Z" fill="#E1DCD6"/>
<path d="M55.1829 176.844C57.5822 176.24 58.9206 178.851 59.7203 180.532C60.9118 183.03 62.2828 185.315 65.1717 185.674C65.3839 183.797 65.4002 180.728 63.8823 179.308C67.0977 182.197 71.3739 184.058 75.7318 182.524C75.0953 180.124 74.1486 177.937 72.0105 176.566C70.6232 175.685 67.5873 174.102 66.0205 174.885C68.1912 174.167 69.3174 173.432 70.8843 172.959C68.1423 170.935 65.3186 168.699 61.7932 170.478C58.9532 171.915 58.1861 175.766 55.1829 176.86V176.844Z" fill="#E1DCD6"/>
<path d="M67.7669 178.149C67.7669 178.149 67.7179 178.084 67.6363 177.953C67.5873 177.888 67.5384 177.807 67.4731 177.725C67.4078 177.643 67.3099 177.545 67.2119 177.447C66.9998 177.252 66.7386 177.023 66.3959 176.811C66.2163 176.713 66.0368 176.615 65.8409 176.501C65.6287 176.419 65.4166 176.305 65.1881 176.223C64.7311 176.044 64.2088 175.913 63.6538 175.815C63.0989 175.717 62.5113 175.652 61.8911 175.619C61.2872 175.603 60.618 175.619 59.9978 175.685C59.3776 175.75 58.741 175.799 58.1045 175.864C57.7944 175.897 57.4679 175.946 57.1578 175.962C56.8477 175.979 56.5376 175.995 56.2275 176.027C55.9174 176.044 55.6073 176.076 55.3135 176.093C55.1666 176.093 55.0034 176.125 54.8565 176.125H54.628L54.579 176.142H54.5464C54.5464 176.142 54.579 176.142 54.5627 176.142H54.4321C54.2852 176.142 54.1383 176.142 53.9914 176.142H53.7793L53.5834 176.125C53.4528 176.125 53.3223 176.093 53.208 176.076C53.0774 176.076 52.9632 176.011 52.8326 175.995C52.702 175.962 52.5878 175.93 52.4735 175.897C52.3593 175.848 52.245 175.799 52.1308 175.766C52.0165 175.717 51.9023 175.685 51.788 175.636H51.7391C51.7391 175.636 51.7227 175.603 51.7064 175.603L51.6248 175.554C51.6248 175.554 51.5106 175.489 51.4616 175.473C51.4126 175.44 51.3637 175.424 51.2984 175.391C51.2494 175.358 51.2168 175.326 51.1678 175.309C51.0862 175.244 51.0046 175.195 50.923 175.13C50.7598 174.999 50.6129 174.869 50.4823 174.738C50.2211 174.461 50.009 174.199 49.8294 173.987C49.6499 173.775 49.4867 173.612 49.3887 173.498C49.2908 173.383 49.2255 173.334 49.2255 173.334C49.2255 173.334 49.2745 173.4 49.3398 173.53C49.4214 173.661 49.5193 173.857 49.6662 174.102C49.7968 174.346 49.96 174.656 50.1885 174.983C50.3028 175.146 50.4333 175.326 50.5965 175.489C50.6781 175.57 50.7761 175.652 50.8577 175.734C50.9067 175.783 50.9556 175.815 51.0046 175.864C51.0535 175.897 51.1025 175.93 51.1515 175.962C51.2004 175.995 51.2494 176.027 51.2984 176.06L51.38 176.109C51.38 176.109 51.38 176.109 51.4289 176.142H51.4779C51.5922 176.223 51.7064 176.289 51.8207 176.354C51.9349 176.419 52.0655 176.484 52.1961 176.55C52.3266 176.599 52.4735 176.648 52.6041 176.697C52.751 176.746 52.8816 176.811 53.0285 176.827C53.1754 176.86 53.3386 176.893 53.4855 176.925L53.7303 176.974H53.9425C54.0894 176.99 54.2363 177.007 54.3832 177.007H54.4974H54.53H54.5627H54.6117H54.8402C54.9871 177.007 55.1503 177.007 55.2972 177.007C55.6073 177.007 55.9174 176.99 56.2438 176.974C56.5539 176.974 56.8804 176.941 57.2068 176.925C57.5332 176.925 57.8433 176.876 58.1534 176.844C58.79 176.778 59.4265 176.697 60.0468 176.631C60.667 176.55 61.2382 176.484 61.8258 176.484C62.3971 176.484 62.9683 176.484 63.4906 176.533C64.0129 176.582 64.5189 176.648 64.9759 176.762C65.4329 176.86 65.8409 176.99 66.1837 177.137C66.5264 177.284 66.8202 177.447 67.0487 177.594C67.163 177.676 67.2609 177.741 67.3425 177.807C67.4241 177.872 67.4894 177.937 67.5547 177.986C67.6689 178.084 67.7342 178.133 67.7342 178.133L67.7669 178.149Z" fill="#E1DCD6"/>
<path d="M3.18227 187.646C3.60663 185.214 6.5282 185.051 8.38886 185.002C11.1472 184.921 13.8076 184.594 15.2929 182.097C13.6607 181.15 10.8697 179.894 8.96012 180.693C12.91 178.931 16.3375 175.781 16.6966 171.162C14.2483 170.77 11.8654 170.754 9.74356 172.157C8.37254 173.055 5.6958 175.209 5.77741 176.956C6.00591 174.671 5.77741 173.365 5.98959 171.733C3.01905 173.414 -0.163658 175.095 0.032201 179.029C0.195417 182.211 3.39445 184.464 3.18227 187.646Z" fill="#E1DCD6"/>
<path d="M9.48241 176.679C9.48241 176.679 9.4008 176.679 9.25391 176.728C9.1723 176.728 9.09069 176.76 8.97644 176.777C8.87851 176.809 8.74794 176.858 8.61737 176.907C8.35622 177.021 8.02979 177.168 7.70336 177.397C7.54014 177.511 7.37693 177.642 7.19739 177.789C7.03417 177.936 6.85463 178.099 6.69142 178.278C6.34866 178.637 6.00591 179.045 5.6958 179.519C5.36937 179.992 5.07558 180.498 4.79811 181.053C4.53697 181.608 4.27582 182.212 4.09628 182.816C3.90042 183.403 3.68824 184.023 3.49238 184.627C3.39445 184.921 3.31284 185.248 3.19859 185.541C3.08434 185.835 2.98641 186.129 2.87216 186.423C2.75791 186.717 2.65998 187.01 2.56205 187.288C2.51309 187.435 2.46412 187.582 2.41516 187.712L2.34987 187.924V187.973L2.31723 188.006C2.31723 188.022 2.31723 187.973 2.31723 187.99L2.26826 188.088C2.20298 188.218 2.15401 188.365 2.08872 188.496L2.00712 188.691L1.90919 188.855C1.8439 188.969 1.77861 189.083 1.71333 189.181C1.66436 189.295 1.56643 189.393 1.48483 189.491C1.40322 189.589 1.32161 189.687 1.25632 189.785C1.17471 189.883 1.07679 189.965 0.995177 190.046C0.913569 190.128 0.815639 190.226 0.734031 190.307L0.701387 190.34C0.701387 190.34 0.685066 190.34 0.685066 190.356L0.619779 190.405C0.619779 190.405 0.521849 190.487 0.472884 190.519C0.42392 190.552 0.374956 190.585 0.325991 190.634C0.277026 190.666 0.244383 190.683 0.195419 190.715C0.113811 190.764 0.0322011 190.83 -0.0657284 190.879C-0.245266 190.976 -0.424804 191.058 -0.604341 191.123C-0.963417 191.254 -1.28985 191.336 -1.55099 191.417C-1.82846 191.499 -2.02432 191.564 -2.17122 191.629C-2.31811 191.678 -2.3834 191.711 -2.3834 191.711C-2.3834 191.711 -2.30179 191.711 -2.15489 191.678C-2.008 191.662 -1.7795 191.646 -1.50203 191.613C-1.22456 191.58 -0.881808 191.564 -0.490089 191.482C-0.29423 191.45 -0.0820498 191.385 0.146453 191.319C0.260704 191.287 0.374955 191.221 0.489206 191.172C0.554493 191.14 0.603459 191.123 0.668745 191.091C0.71771 191.058 0.766674 191.025 0.815638 190.993C0.864603 190.96 0.913568 190.928 0.978855 190.895L1.06046 190.846C1.06046 190.846 1.06046 190.846 1.10943 190.813L1.14207 190.781C1.24 190.699 1.35425 190.617 1.45218 190.536C1.56643 190.454 1.66436 190.373 1.77861 190.275C1.87654 190.177 1.97447 190.062 2.0724 189.965C2.17033 189.85 2.28458 189.752 2.36619 189.622C2.46412 189.491 2.54573 189.361 2.64366 189.23L2.77423 189.034L2.87216 188.838C2.93745 188.708 3.00273 188.577 3.06802 188.447L3.11699 188.349L3.13331 188.316V188.283L3.16595 188.234L3.24756 188.022C3.31285 187.875 3.36181 187.745 3.4271 187.598C3.54135 187.304 3.6556 187.01 3.76985 186.717C3.8841 186.423 3.99835 186.129 4.1126 185.819C4.22686 185.525 4.32478 185.215 4.42271 184.921C4.61857 184.317 4.79811 183.697 4.99397 183.109C5.17351 182.506 5.35305 181.951 5.58155 181.412C5.81005 180.873 6.03855 180.367 6.2997 179.91C6.56085 179.453 6.82199 179.013 7.09946 178.654C7.37693 178.278 7.65439 177.968 7.93186 177.707C8.20933 177.446 8.47047 177.25 8.69898 177.103C8.81323 177.038 8.92748 176.973 9.00909 176.907C9.10702 176.858 9.18862 176.826 9.25391 176.793C9.38448 176.728 9.46609 176.695 9.46609 176.695L9.48241 176.679Z" fill="#E1DCD6"/>
<path d="M74.6546 150.761C75.7318 148.9 78.1474 149.651 79.6816 150.173C81.9503 150.94 84.2027 151.463 86.1613 149.879C85.1167 148.623 83.2234 146.762 81.4281 146.844C85.1657 146.582 88.9034 145.064 90.5682 141.425C88.6912 140.364 86.7652 139.646 84.6271 140.152C83.2398 140.478 80.4161 141.408 79.9591 142.861C80.8242 141.082 81.0363 139.939 81.6892 138.683C78.7676 139.172 75.6829 139.58 74.6546 142.828C73.8385 145.473 75.7645 148.264 74.6383 150.793L74.6546 150.761Z" fill="#E1DCD6"/>
<path d="M83.0602 143.726C83.0602 143.726 82.9949 143.726 82.8644 143.693C82.7991 143.693 82.7175 143.66 82.6195 143.66C82.5216 143.66 82.4074 143.66 82.2931 143.66C82.0483 143.66 81.7382 143.693 81.3954 143.791C81.2322 143.84 81.0527 143.889 80.8568 143.954C80.6773 144.036 80.4814 144.101 80.2855 144.199C79.8938 144.378 79.5021 144.623 79.0941 144.901C78.686 145.178 78.2943 145.505 77.9026 145.88C77.5272 146.239 77.1355 146.663 76.809 147.088C76.4663 147.512 76.1235 147.937 75.7808 148.377C75.6012 148.589 75.4544 148.818 75.2748 149.03C75.0953 149.242 74.9157 149.438 74.7525 149.65C74.573 149.846 74.4098 150.058 74.2466 150.271C74.1649 150.368 74.0833 150.466 74.0017 150.581L73.8712 150.728L73.8385 150.76V150.776L73.7732 150.842C73.6753 150.94 73.5937 151.021 73.5121 151.119L73.3815 151.25L73.2509 151.348C73.1693 151.413 73.0877 151.495 72.9898 151.56C72.9082 151.642 72.8103 151.674 72.7123 151.739C72.6144 151.805 72.5165 151.854 72.4349 151.903C72.3369 151.952 72.239 151.984 72.1411 152.033C72.0431 152.082 71.9452 152.115 71.8636 152.164H71.831L71.8146 152.18H71.733C71.733 152.18 71.6351 152.229 71.5861 152.245C71.5372 152.245 71.4882 152.278 71.4392 152.294C71.3903 152.294 71.3576 152.311 71.3087 152.327C71.2271 152.327 71.1454 152.36 71.0475 152.376C70.868 152.392 70.7048 152.409 70.5415 152.409C70.2151 152.409 69.9213 152.376 69.6765 152.36C69.4317 152.343 69.2358 152.343 69.1052 152.343C68.9747 152.343 68.9094 152.343 68.9094 152.343C68.9094 152.343 68.9747 152.343 69.1052 152.392C69.2358 152.425 69.4154 152.474 69.6439 152.539C69.8724 152.605 70.1661 152.686 70.5089 152.735C70.6884 152.768 70.868 152.784 71.0638 152.784C71.1618 152.784 71.276 152.784 71.3739 152.784C71.4229 152.784 71.4882 152.784 71.5372 152.784C71.5861 152.784 71.6351 152.768 71.6841 152.751C71.733 152.735 71.782 152.735 71.831 152.719H71.9126C71.9126 152.719 71.9126 152.719 71.9615 152.686H71.9942C72.1084 152.637 72.2064 152.605 72.3206 152.572C72.4349 152.539 72.5491 152.507 72.6634 152.458C72.7776 152.409 72.8919 152.343 73.0061 152.294C73.1204 152.229 73.2346 152.196 73.3489 152.115C73.4631 152.033 73.5774 151.968 73.6916 151.886L73.8712 151.772L74.0181 151.642C74.116 151.56 74.2139 151.462 74.2955 151.38L74.3608 151.315L74.3934 151.282V151.266L74.4424 151.233L74.573 151.087C74.6709 150.989 74.7525 150.891 74.8505 150.793C75.03 150.597 75.2095 150.385 75.4054 150.189C75.5849 149.977 75.7645 149.781 75.9603 149.569C76.1399 149.357 76.3031 149.144 76.4826 148.932C76.8254 148.491 77.1518 148.051 77.4945 147.626C77.821 147.186 78.1311 146.794 78.4738 146.435C78.8166 146.076 79.1594 145.717 79.5184 145.423C79.8775 145.129 80.2039 144.852 80.5467 144.64C80.8894 144.411 81.1996 144.248 81.5097 144.117C81.8035 143.987 82.0809 143.905 82.3094 143.856C82.4237 143.84 82.5216 143.807 82.6195 143.791C82.7175 143.791 82.7991 143.791 82.8644 143.775C82.9949 143.775 83.0602 143.775 83.0602 143.775V143.726Z" fill="#E1DCD6"/>
<path d="M5.94063 162.104C7.279 160.749 9.20495 161.924 10.3964 162.724C12.1755 163.883 14.0035 164.846 16.0437 163.932C15.4235 162.61 14.2157 160.586 12.6488 160.243C15.9295 160.863 19.4876 160.374 21.7399 157.615C20.3689 156.293 18.851 155.216 16.9087 155.183C15.652 155.151 13.0079 155.33 12.2897 156.473C13.4322 155.134 13.8729 154.188 14.7217 153.257C12.0939 153.029 9.33552 152.686 7.73601 155.265C6.43028 157.354 7.47486 160.194 5.94063 162.12V162.104Z" fill="#E1DCD6"/>
<path d="M14.7543 157.925C14.7543 157.925 14.7053 157.892 14.5911 157.859C14.5421 157.843 14.4768 157.811 14.3952 157.778C14.3136 157.745 14.2157 157.729 14.1178 157.696C13.9056 157.647 13.6281 157.615 13.318 157.598C13.1548 157.598 12.9916 157.598 12.8283 157.615C12.6488 157.631 12.4693 157.664 12.2897 157.696C11.9143 157.762 11.5226 157.892 11.1146 158.039C10.7065 158.186 10.2822 158.382 9.87413 158.627C9.46609 158.855 9.02541 159.133 8.65001 159.426C8.25829 159.72 7.86658 160.014 7.47486 160.308C7.279 160.455 7.08314 160.618 6.88728 160.748C6.69142 160.879 6.49556 161.026 6.2997 161.156C6.10384 161.287 5.90798 161.434 5.72844 161.564C5.63051 161.63 5.53259 161.695 5.45098 161.777L5.30408 161.875L5.27144 161.907L5.18983 161.956C5.0919 162.021 4.99397 162.07 4.89604 162.136L4.74915 162.217L4.61858 162.283C4.52065 162.332 4.43904 162.364 4.35743 162.413C4.27582 162.462 4.16157 162.478 4.07996 162.511C3.98203 162.544 3.90043 162.56 3.8025 162.593C3.70457 162.609 3.60664 162.625 3.52503 162.642C3.4271 162.658 3.34549 162.674 3.24756 162.691H3.21492C3.21492 162.691 3.21492 162.691 3.19859 162.691H3.13331C3.13331 162.691 3.03538 162.691 2.98642 162.691C2.93745 162.691 2.88848 162.691 2.85584 162.691C2.8232 162.691 2.77423 162.691 2.74159 162.691C2.65998 162.691 2.57837 162.691 2.51309 162.674C2.34987 162.658 2.20298 162.625 2.0724 162.593C1.79494 162.511 1.55011 162.43 1.33793 162.364C1.12575 162.299 0.962535 162.25 0.848284 162.217C0.734033 162.185 0.668747 162.168 0.668747 162.168C0.668747 162.168 0.717711 162.201 0.831962 162.25C0.929892 162.299 1.07679 162.381 1.27265 162.495C1.46851 162.593 1.68069 162.74 1.97447 162.854C2.12137 162.919 2.26826 162.968 2.4478 163.033C2.52941 163.066 2.62734 163.066 2.72527 163.099C2.77423 163.099 2.8232 163.115 2.87216 163.131C2.92113 163.131 2.97009 163.131 3.00274 163.131C3.0517 163.131 3.10067 163.131 3.14963 163.131H3.21492C3.21492 163.131 3.21492 163.131 3.26388 163.131H3.29653C3.39445 163.131 3.49238 163.131 3.60664 163.131C3.70456 163.131 3.81882 163.131 3.93307 163.115C4.04732 163.099 4.14525 163.066 4.2595 163.05C4.37375 163.017 4.488 163.017 4.60225 162.968C4.71651 162.919 4.83076 162.887 4.94501 162.838L5.12455 162.772L5.27144 162.691C5.36937 162.642 5.4673 162.576 5.58155 162.527L5.66316 162.495H5.6958L5.74477 162.478L5.89166 162.381C5.98959 162.315 6.08752 162.25 6.18545 162.185C6.38131 162.054 6.59349 161.924 6.78935 161.777C6.98521 161.646 7.19739 161.499 7.40957 161.369C7.62175 161.238 7.80129 161.075 7.99715 160.928C8.38887 160.634 8.78059 160.324 9.15598 160.03C9.53138 159.736 9.89045 159.459 10.2822 159.214C10.6576 158.986 11.033 158.757 11.4084 158.578C11.7838 158.398 12.1265 158.235 12.4693 158.137C12.812 158.023 13.1221 157.941 13.4159 157.892C13.7097 157.843 13.9545 157.843 14.1667 157.843C14.2646 157.843 14.3626 157.843 14.4442 157.859C14.5258 157.859 14.5911 157.892 14.6564 157.892C14.7706 157.908 14.8359 157.925 14.8359 157.925H14.7543Z" fill="#E1DCD6"/>
<path d="M63.409 158.693C61.8748 157.191 63.1805 155.037 64.0456 153.666C65.335 151.658 66.3959 149.585 65.335 147.3C63.866 148.002 61.5973 149.389 61.2382 151.152C61.8911 147.463 61.3198 143.465 58.1861 140.967C56.7008 142.518 55.5257 144.232 55.493 146.419C55.4767 147.839 55.7052 150.809 56.9946 151.609C55.4767 150.336 54.4158 149.846 53.3549 148.916C53.1101 151.87 52.751 154.971 55.6726 156.75C58.0392 158.187 61.2056 156.995 63.3927 158.709L63.409 158.693Z" fill="#E1DCD6"/>
<path d="M58.6268 148.818C58.6268 148.818 58.5941 148.883 58.5452 148.997C58.5125 149.063 58.4799 149.128 58.4472 149.226C58.4146 149.324 58.382 149.422 58.3656 149.552C58.3167 149.797 58.2677 150.091 58.2677 150.45C58.2677 150.63 58.2677 150.809 58.3003 151.005C58.333 151.201 58.3493 151.397 58.3983 151.609C58.4799 152.033 58.6268 152.474 58.79 152.931C58.9695 153.388 59.1817 153.861 59.4592 154.318C59.7203 154.775 60.0304 155.265 60.3732 155.689C60.6996 156.13 61.0424 156.554 61.3688 156.995C61.532 157.207 61.7116 157.419 61.8748 157.648C62.038 157.876 62.1849 158.089 62.3481 158.301C62.495 158.513 62.6582 158.741 62.8214 158.954C62.903 159.052 62.9846 159.166 63.0499 159.264L63.1642 159.427L63.1968 159.46V159.476L63.2458 159.558C63.3111 159.672 63.3764 159.77 63.4417 159.884L63.5396 160.047L63.6049 160.194C63.6538 160.292 63.7028 160.39 63.7518 160.488C63.8007 160.586 63.817 160.7 63.866 160.798C63.8987 160.896 63.9313 161.01 63.9639 161.108C63.9803 161.206 63.9966 161.32 64.0129 161.418C64.0292 161.516 64.0456 161.63 64.0782 161.728V161.761V161.777V161.859C64.0782 161.859 64.0782 161.957 64.0782 162.022C64.0782 162.071 64.0782 162.12 64.0782 162.169C64.0782 162.218 64.0782 162.251 64.0782 162.3C64.0782 162.381 64.0782 162.479 64.0619 162.561C64.0455 162.74 64.0129 162.903 63.9639 163.067C63.8823 163.377 63.7844 163.654 63.7191 163.899C63.6375 164.128 63.5885 164.323 63.5722 164.438C63.5396 164.568 63.5233 164.634 63.5233 164.634C63.5233 164.634 63.5559 164.568 63.6212 164.454C63.6702 164.34 63.7681 164.177 63.8823 163.964C63.9966 163.752 64.1435 163.491 64.2904 163.181C64.372 163.018 64.4209 162.838 64.4862 162.642C64.5189 162.544 64.5352 162.43 64.5515 162.332C64.5515 162.283 64.5678 162.218 64.5842 162.169C64.5842 162.12 64.5842 162.071 64.5842 162.022C64.5842 161.973 64.5842 161.924 64.5842 161.859V161.777C64.5842 161.777 64.5842 161.777 64.5842 161.728V161.679C64.5842 161.565 64.5842 161.451 64.5678 161.337C64.5678 161.222 64.5678 161.092 64.5352 160.977C64.5026 160.863 64.4862 160.733 64.4536 160.618C64.4209 160.488 64.4046 160.374 64.3557 160.243C64.3067 160.112 64.2577 159.982 64.2088 159.851L64.1272 159.655L64.0292 159.492C63.9639 159.378 63.915 159.264 63.8497 159.149L63.8007 159.068L63.7844 159.035V159.019L63.7518 158.97L63.6375 158.807C63.5559 158.692 63.4906 158.578 63.409 158.464C63.2621 158.235 63.1152 158.007 62.952 157.778C62.7888 157.55 62.6419 157.321 62.4787 157.093C62.3155 156.864 62.1522 156.652 61.989 156.424C61.6463 155.983 61.3035 155.559 60.9608 155.134C60.618 154.71 60.3079 154.318 60.0304 153.894C59.7693 153.47 59.5081 153.062 59.296 152.637C59.1001 152.229 58.9042 151.821 58.79 151.446C58.6594 151.07 58.5615 150.711 58.5125 150.385C58.4636 150.058 58.4472 149.781 58.4472 149.536C58.4472 149.422 58.4472 149.308 58.4636 149.226C58.4636 149.128 58.4962 149.046 58.4962 148.997C58.5125 148.867 58.5288 148.802 58.5288 148.802L58.6268 148.818Z" fill="#E1DCD6"/>
<path d="M24.6125 139.776C21.8379 138.633 22.4091 135.124 22.8335 132.904C23.47 129.607 23.7638 126.376 21.2013 123.944C19.6508 125.625 17.4147 128.612 17.8717 131.093C16.8108 125.951 13.9709 121.038 8.60105 119.423C7.49118 122.214 6.83832 125.054 7.94818 127.926C8.66634 129.787 10.4944 133.525 12.5998 133.884C9.95574 133.019 8.32358 132.937 6.46292 132.268C7.68704 136.234 8.84587 140.445 13.5628 141.245C17.3821 141.881 20.8912 138.666 24.6125 139.759V139.776Z" fill="#E1DCD6"/>
<path d="M13.2364 129.428C13.2364 129.428 13.2364 129.526 13.2364 129.706C13.2364 129.804 13.2364 129.901 13.2364 130.048C13.2364 130.179 13.269 130.342 13.2854 130.505C13.3506 130.848 13.4486 131.273 13.6281 131.713C13.726 131.942 13.8403 132.17 13.9545 132.415C14.0851 132.644 14.232 132.905 14.3952 133.149C14.7217 133.655 15.1297 134.161 15.603 134.667C16.0763 135.173 16.5986 135.663 17.1862 136.12C17.7738 136.577 18.4267 137.05 19.0795 137.426C19.7324 137.817 20.4016 138.209 21.0708 138.617C21.3972 138.813 21.7563 138.993 22.0664 139.205C22.3928 139.417 22.7029 139.613 23.0294 139.825C23.3395 140.037 23.6659 140.233 23.976 140.413C24.1392 140.511 24.2861 140.608 24.4493 140.706L24.6778 140.853L24.7431 140.886H24.7758C24.7758 140.886 24.7431 140.886 24.7594 140.886H24.7758L24.89 140.968C25.0369 141.082 25.1838 141.18 25.3307 141.294L25.5429 141.457L25.7061 141.62C25.8203 141.718 25.9346 141.833 26.0488 141.931C26.1631 142.028 26.2447 142.175 26.359 142.29C26.4569 142.404 26.5548 142.534 26.6527 142.649C26.7344 142.779 26.816 142.91 26.8976 143.024C26.9792 143.155 27.0608 143.269 27.1261 143.399L27.1587 143.448C27.1587 143.448 27.1587 143.465 27.1587 143.481L27.2077 143.579C27.2077 143.579 27.273 143.71 27.3056 143.775C27.3383 143.84 27.3709 143.905 27.4035 143.971C27.4199 144.036 27.4362 144.085 27.4688 144.15C27.5015 144.265 27.5504 144.379 27.5831 144.509C27.6484 144.754 27.6973 144.983 27.73 145.211C27.7953 145.668 27.8116 146.076 27.8442 146.419C27.8605 146.762 27.8932 147.023 27.9258 147.202C27.9585 147.382 27.9585 147.48 27.9585 147.48C27.9585 147.48 27.9585 147.382 27.9911 147.202C27.9911 147.023 28.0401 146.762 28.089 146.419C28.1217 146.076 28.2033 145.668 28.2033 145.179C28.2033 144.934 28.2033 144.673 28.1707 144.395C28.1707 144.248 28.1217 144.101 28.089 143.954C28.0727 143.873 28.0564 143.807 28.0401 143.726C28.0238 143.661 27.9911 143.595 27.9748 143.514C27.9585 143.448 27.9258 143.367 27.9095 143.302L27.8769 143.204C27.8769 143.204 27.8769 143.204 27.8442 143.122L27.8116 143.073C27.7463 142.926 27.681 142.779 27.5994 142.632C27.5341 142.485 27.4525 142.339 27.3709 142.175C27.273 142.028 27.175 141.882 27.0771 141.735C26.9792 141.588 26.8976 141.425 26.7507 141.294C26.6201 141.147 26.4895 141.016 26.359 140.87L26.1631 140.657L25.9509 140.478C25.8203 140.364 25.6735 140.249 25.5266 140.135L25.4286 140.054L25.3797 140.021H25.347L25.2981 139.956L25.0696 139.792C24.9227 139.678 24.7594 139.58 24.6125 139.466C24.3024 139.254 23.9923 139.025 23.6659 138.829C23.3395 138.617 23.013 138.405 22.6866 138.177C22.3602 137.964 22.0174 137.769 21.691 137.573C21.0218 137.181 20.3526 136.806 19.6834 136.414C19.0142 136.038 18.4103 135.679 17.8391 135.271C17.2678 134.863 16.7129 134.455 16.2396 134.015C15.7662 133.574 15.3092 133.166 14.9502 132.725C14.5748 132.301 14.281 131.876 14.0361 131.501C13.8076 131.109 13.6281 130.75 13.5139 130.44C13.4649 130.277 13.4159 130.146 13.367 130.016C13.3343 129.885 13.318 129.771 13.3017 129.689C13.269 129.51 13.2527 129.412 13.2527 129.412L13.2364 129.428Z" fill="#E1DCD6"/>
<path d="M46.0428 106.284C44.5902 104.88 45.8306 102.823 46.6467 101.55C47.8708 99.6571 48.8665 97.6985 47.8708 95.5604C46.4835 96.2296 44.3454 97.5353 44.0026 99.1838C44.6228 95.7073 44.0842 91.937 41.13 89.5704C39.7427 91.0393 38.6165 92.6388 38.6002 94.7117C38.5838 96.05 38.796 98.841 40.0038 99.5918C38.5675 98.384 37.5719 97.927 36.5763 97.0457C36.3478 99.8203 36.0213 102.742 38.7634 104.423C40.9831 105.778 43.9863 104.652 46.0428 106.267V106.284Z" fill="#E1DCD6"/>
<path d="M41.5381 96.9805C41.5381 96.9805 41.5054 97.0457 41.4564 97.16C41.4401 97.209 41.3912 97.2906 41.3748 97.3722C41.3422 97.4538 41.3259 97.5517 41.2932 97.6823C41.2443 97.9108 41.1953 98.1883 41.2116 98.531C41.2116 98.6942 41.2116 98.8737 41.2443 99.0533C41.2769 99.2328 41.2932 99.4287 41.3422 99.6245C41.4238 100.016 41.5544 100.441 41.7176 100.865C41.8808 101.289 42.093 101.73 42.3378 102.171C42.5826 102.595 42.8764 103.052 43.2029 103.46C43.513 103.868 43.8231 104.276 44.1495 104.701C44.3127 104.913 44.4759 105.109 44.6228 105.321C44.7697 105.533 44.9166 105.729 45.0635 105.941C45.2104 106.153 45.3573 106.349 45.5042 106.545C45.5858 106.643 45.6511 106.741 45.7327 106.839L45.847 106.986L45.8796 107.018V107.035L45.9286 107.116C45.9939 107.214 46.0591 107.328 46.1244 107.426L46.2224 107.573L46.2876 107.72C46.3366 107.818 46.3856 107.916 46.4182 107.998C46.4672 108.095 46.4835 108.193 46.5161 108.291C46.5488 108.389 46.5814 108.487 46.6141 108.585C46.6304 108.683 46.6467 108.781 46.663 108.879C46.6794 108.977 46.6957 109.075 46.712 109.173V109.205V109.222V109.303C46.712 109.303 46.712 109.401 46.712 109.45C46.712 109.499 46.712 109.548 46.712 109.597C46.712 109.646 46.712 109.679 46.712 109.728C46.712 109.809 46.712 109.891 46.712 109.972C46.6957 110.136 46.663 110.299 46.6304 110.446C46.5488 110.74 46.4672 111.001 46.4019 111.229C46.3366 111.441 46.2876 111.621 46.255 111.751C46.2224 111.866 46.206 111.931 46.206 111.931C46.206 111.931 46.2387 111.866 46.2876 111.768C46.3366 111.654 46.4345 111.507 46.5325 111.294C46.6467 111.099 46.7936 110.854 46.9079 110.544C46.9731 110.397 47.0384 110.234 47.0874 110.038C47.12 109.94 47.12 109.842 47.1527 109.744C47.1527 109.695 47.169 109.646 47.1853 109.581C47.1853 109.532 47.1853 109.483 47.1853 109.434C47.1853 109.385 47.1853 109.336 47.1853 109.287V109.205C47.1853 109.205 47.1853 109.205 47.1853 109.156V109.124C47.1853 109.009 47.1853 108.912 47.169 108.797C47.169 108.683 47.169 108.569 47.1364 108.455C47.12 108.34 47.0874 108.226 47.0711 108.112C47.0384 107.998 47.0384 107.867 46.9895 107.753C46.9405 107.638 46.9079 107.508 46.8589 107.394L46.7936 107.214L46.712 107.051C46.6467 106.953 46.5978 106.839 46.5325 106.724L46.4835 106.643L46.4672 106.61V106.594L46.4345 106.561L46.3366 106.398C46.2713 106.3 46.1897 106.186 46.1244 106.088C45.9775 105.876 45.847 105.664 45.7001 105.451C45.5532 105.239 45.4063 105.027 45.2594 104.798C45.1125 104.586 44.9493 104.374 44.7861 104.178C44.4596 103.77 44.1332 103.362 43.8231 102.954C43.4966 102.546 43.2029 102.187 42.958 101.779C42.7132 101.387 42.4684 100.996 42.2725 100.604C42.0767 100.212 41.9134 99.8367 41.7992 99.4777C41.6686 99.1186 41.587 98.7758 41.5381 98.482C41.4891 98.1719 41.4728 97.9108 41.4728 97.6823C41.4728 97.568 41.4728 97.4701 41.4891 97.3885C41.4891 97.3069 41.5217 97.2253 41.5217 97.16C41.5381 97.0457 41.5544 96.9805 41.5544 96.9805H41.5381Z" fill="#E1DCD6"/>
<path d="M34.8625 118.77C33.3283 117.268 34.634 115.114 35.4991 113.743C36.7885 111.735 37.8494 109.662 36.7885 107.377C35.3195 108.079 33.0508 109.466 32.6917 111.229C33.3446 107.541 32.7734 103.542 29.6396 101.045C28.1543 102.595 26.9792 104.309 26.9465 106.496C26.9302 107.916 27.1587 110.886 28.4481 111.686C26.9302 110.413 25.8693 109.924 24.8084 108.993C24.5636 111.947 24.2045 115.048 27.1261 116.828C29.4927 118.264 32.6591 117.072 34.8462 118.786L34.8625 118.77Z" fill="#E1DCD6"/>
<path d="M30.0803 108.911C30.0803 108.911 30.0476 108.976 29.9987 109.09C29.966 109.156 29.9334 109.221 29.9007 109.319C29.8681 109.417 29.8518 109.515 29.8191 109.645C29.7702 109.89 29.7212 110.184 29.7212 110.543C29.7212 110.723 29.7212 110.902 29.7539 111.098C29.7865 111.294 29.8028 111.49 29.8518 111.702C29.9334 112.126 30.0803 112.567 30.2435 113.024C30.423 113.481 30.6352 113.954 30.9127 114.411C31.1738 114.868 31.4839 115.358 31.8267 115.782C32.1531 116.223 32.4959 116.647 32.8223 117.088C32.9855 117.3 33.1651 117.512 33.3283 117.741C33.4915 117.969 33.6384 118.182 33.8016 118.394C33.9485 118.606 34.1117 118.834 34.2749 119.047C34.3565 119.145 34.4382 119.259 34.5034 119.357L34.6177 119.52L34.6503 119.553V119.569L34.6993 119.651C34.7646 119.765 34.8299 119.863 34.8952 119.977L34.9931 120.14L35.0584 120.287C35.1073 120.385 35.1563 120.483 35.2053 120.581C35.2542 120.679 35.2706 120.793 35.3195 120.891C35.3522 120.989 35.3848 121.103 35.4174 121.201C35.4338 121.299 35.4501 121.413 35.4664 121.511C35.4827 121.609 35.4991 121.723 35.5317 121.821V121.854V121.87V121.952C35.5317 121.952 35.5317 122.05 35.5317 122.115C35.5317 122.164 35.5317 122.213 35.5317 122.262C35.5317 122.311 35.5317 122.344 35.5317 122.393C35.5317 122.474 35.5317 122.572 35.5154 122.654C35.4991 122.833 35.4664 122.996 35.4174 123.16C35.3358 123.47 35.2379 123.747 35.1726 123.992C35.091 124.221 35.0421 124.416 35.0257 124.531C34.9931 124.661 34.9768 124.727 34.9768 124.727C34.9768 124.727 35.0094 124.661 35.0747 124.547C35.1237 124.433 35.2216 124.27 35.3358 124.057C35.4501 123.845 35.597 123.584 35.7439 123.274C35.8255 123.111 35.8745 122.931 35.9397 122.752C35.9724 122.654 35.9887 122.539 36.005 122.442C36.005 122.393 36.0213 122.327 36.0377 122.278C36.0377 122.229 36.0377 122.18 36.0377 122.131C36.0377 122.082 36.0377 122.033 36.0377 121.968V121.887C36.0377 121.887 36.0377 121.887 36.0377 121.838V121.789C36.0377 121.674 36.0377 121.56 36.0213 121.446C36.0213 121.332 36.0213 121.201 35.9887 121.087C35.9561 120.973 35.9397 120.842 35.9071 120.711C35.8745 120.581 35.8581 120.467 35.8092 120.336C35.7602 120.205 35.7112 120.075 35.6623 119.944L35.5807 119.748L35.4827 119.585C35.4174 119.471 35.3522 119.357 35.3032 119.243L35.2542 119.161L35.2379 119.128V119.112L35.1889 119.063L35.0747 118.9C35.0094 118.785 34.9278 118.671 34.8462 118.557C34.6993 118.328 34.5524 118.1 34.3892 117.871C34.226 117.643 34.0791 117.414 33.9159 117.186C33.7526 116.957 33.5894 116.745 33.4262 116.517C33.0835 116.076 32.7407 115.652 32.398 115.227C32.0552 114.803 31.7451 114.411 31.4676 113.987C31.2065 113.563 30.9453 113.155 30.7331 112.73C30.5373 112.322 30.3414 111.914 30.2272 111.539C30.0966 111.163 29.9987 110.804 29.9497 110.478C29.9007 110.151 29.8844 109.874 29.8844 109.629C29.8844 109.515 29.8844 109.401 29.9007 109.319C29.9007 109.221 29.9334 109.139 29.9334 109.09C29.9497 108.96 29.966 108.895 29.966 108.895L30.0803 108.911Z" fill="#E1DCD6"/>
<path d="M69.1705 134.88C68.2076 133.933 69.0236 132.562 69.5786 131.714C70.3947 130.441 71.0638 129.135 70.3947 127.699C69.4643 128.139 68.028 129.021 67.7995 130.131C68.2076 127.797 67.8485 125.283 65.8736 123.7C64.9432 124.679 64.1924 125.756 64.1761 127.144C64.1761 128.041 64.3067 129.918 65.1228 130.408C64.1598 129.608 63.4906 129.298 62.8214 128.711C62.6745 130.571 62.446 132.53 64.2904 133.656C65.7756 134.57 67.7832 133.803 69.1542 134.88H69.1705Z" fill="#E1DCD6"/>
<path d="M66.1674 128.644C66.1674 128.644 66.151 128.677 66.1184 128.759C66.1184 128.791 66.0858 128.84 66.0531 128.906C66.0368 128.971 66.0205 129.036 66.0041 129.101C65.9715 129.248 65.9389 129.444 65.9389 129.673C65.9389 129.787 65.9389 129.901 65.9552 130.015C65.9715 130.13 65.9878 130.26 66.0205 130.391C66.0694 130.652 66.1674 130.929 66.2653 131.223C66.3795 131.517 66.5101 131.811 66.6897 132.105C66.8529 132.398 67.0487 132.692 67.2609 132.97C67.4731 133.247 67.6853 133.525 67.8975 133.802C67.9954 133.933 68.1096 134.079 68.2239 134.21C68.3218 134.357 68.4197 134.488 68.5177 134.618C68.6156 134.749 68.7135 134.896 68.8115 135.026C68.8604 135.091 68.9094 135.157 68.9584 135.222L69.0236 135.32V135.353H69.0563L69.0889 135.402C69.0889 135.402 69.1705 135.532 69.2195 135.614L69.2848 135.712L69.3337 135.81C69.3337 135.81 69.399 135.94 69.4317 136.005C69.4643 136.071 69.4806 136.136 69.497 136.201C69.5133 136.267 69.5459 136.332 69.5623 136.397C69.5623 136.462 69.5786 136.528 69.5949 136.593C69.5949 136.658 69.6112 136.724 69.6275 136.789V136.805V136.854C69.6275 136.854 69.6275 136.919 69.6275 136.952C69.6275 136.985 69.6275 137.017 69.6275 137.05C69.6275 137.083 69.6275 137.099 69.6275 137.132C69.6275 137.181 69.6275 137.246 69.6275 137.295C69.6275 137.409 69.5949 137.507 69.5623 137.605C69.5133 137.801 69.448 137.98 69.399 138.127C69.3501 138.274 69.3174 138.388 69.3011 138.47C69.2848 138.552 69.2685 138.584 69.2685 138.584C69.2685 138.584 69.2848 138.552 69.3337 138.47C69.3664 138.388 69.4317 138.29 69.497 138.16C69.5623 138.029 69.6602 137.866 69.7581 137.67C69.8071 137.572 69.8397 137.458 69.8724 137.327C69.8887 137.262 69.905 137.197 69.905 137.132C69.905 137.099 69.905 137.066 69.9213 137.034C69.9213 137.001 69.9213 136.968 69.9213 136.936C69.9213 136.903 69.9213 136.87 69.9213 136.838V136.789C69.9213 136.789 69.9213 136.789 69.9213 136.756V136.724C69.9213 136.724 69.9213 136.577 69.9213 136.511C69.9213 136.43 69.9213 136.364 69.905 136.283C69.905 136.201 69.8724 136.136 69.856 136.054C69.8397 135.973 69.8234 135.891 69.7908 135.81C69.7581 135.728 69.7255 135.646 69.6928 135.565L69.6439 135.434L69.5786 135.32C69.5786 135.32 69.497 135.173 69.4643 135.108L69.4317 135.059V135.042L69.399 135.01L69.3337 134.912C69.3337 134.912 69.2358 134.765 69.1869 134.7C69.0889 134.553 68.991 134.406 68.8931 134.275C68.7951 134.128 68.6972 133.982 68.5993 133.835C68.5014 133.688 68.3871 133.557 68.2892 133.41C68.077 133.133 67.8648 132.855 67.6363 132.594C67.4241 132.333 67.2283 132.072 67.0487 131.811C66.8855 131.55 66.7223 131.288 66.5917 131.027C66.4612 130.766 66.3469 130.521 66.2653 130.277C66.1837 130.032 66.1184 129.82 66.0858 129.607C66.0531 129.411 66.0368 129.216 66.0531 129.069C66.0531 128.987 66.0531 128.922 66.0531 128.873C66.0531 128.808 66.0694 128.759 66.0858 128.726C66.0858 128.644 66.1021 128.595 66.1021 128.595L66.1674 128.644Z" fill="#E1DCD6"/>
<path d="M77.2987 119.424C76.1562 118.853 76.5153 117.4 76.7601 116.47C77.1355 115.099 77.364 113.744 76.3357 112.634C75.6339 113.303 74.5893 114.495 74.7036 115.556C74.4098 113.352 73.3652 111.198 71.1454 110.349C70.5905 111.492 70.2314 112.667 70.6068 113.924C70.8517 114.723 71.5208 116.372 72.3859 116.584C71.2923 116.143 70.6068 116.062 69.8397 115.719C70.2314 117.433 70.5905 119.244 72.5654 119.734C74.165 120.126 75.7318 118.869 77.2824 119.44L77.2987 119.424Z" fill="#E1DCD6"/>
<path d="M72.8266 114.706C72.8266 114.706 72.8266 114.755 72.8266 114.821C72.8266 114.853 72.8266 114.902 72.8266 114.967C72.8266 115.016 72.8266 115.098 72.8266 115.163C72.8266 115.31 72.8755 115.49 72.9408 115.686C72.9735 115.783 73.0061 115.881 73.0551 115.996C73.104 116.094 73.153 116.208 73.2183 116.322C73.3325 116.551 73.4958 116.779 73.6753 116.991C73.8548 117.22 74.067 117.448 74.2955 117.66C74.524 117.873 74.7852 118.085 75.0626 118.264C75.3238 118.444 75.6012 118.64 75.8624 118.819C75.993 118.917 76.1399 118.999 76.2704 119.097C76.401 119.195 76.5316 119.293 76.6621 119.391C76.7927 119.489 76.9233 119.586 77.0375 119.668C77.1028 119.717 77.1681 119.766 77.2334 119.799L77.3313 119.864V119.88H77.364L77.4129 119.913C77.4129 119.913 77.5272 120.011 77.5925 120.06L77.6741 120.125L77.7394 120.19C77.7394 120.19 77.8373 120.288 77.87 120.337C77.9189 120.386 77.9516 120.451 77.9842 120.5C78.0168 120.549 78.0658 120.615 78.0985 120.664C78.1311 120.713 78.1637 120.778 78.1801 120.827C78.2127 120.876 78.2453 120.941 78.2617 120.99V121.006C78.2617 121.006 78.2617 121.006 78.278 121.006V121.055C78.278 121.055 78.3106 121.121 78.327 121.137C78.327 121.17 78.3433 121.186 78.3596 121.219C78.3596 121.251 78.3596 121.268 78.3759 121.3C78.3759 121.349 78.4086 121.398 78.4086 121.447C78.4249 121.545 78.4412 121.659 78.4412 121.741C78.4412 121.937 78.4412 122.116 78.4412 122.247C78.4412 122.394 78.4412 122.508 78.4412 122.59C78.4412 122.671 78.4412 122.704 78.4412 122.704C78.4412 122.704 78.4412 122.655 78.4575 122.59C78.4575 122.508 78.4902 122.41 78.5228 122.263C78.5555 122.116 78.5881 121.953 78.6044 121.741C78.6044 121.643 78.6044 121.529 78.6044 121.414C78.6044 121.349 78.6044 121.284 78.5881 121.235C78.5881 121.202 78.5881 121.17 78.5881 121.137C78.5881 121.104 78.5881 121.072 78.5718 121.055C78.5718 121.023 78.5718 120.99 78.5555 120.957V120.908C78.5555 120.908 78.5555 120.908 78.5391 120.876V120.86C78.5391 120.86 78.4738 120.729 78.4575 120.664C78.4249 120.598 78.4086 120.533 78.3759 120.468C78.3433 120.403 78.3106 120.337 78.2617 120.272C78.229 120.207 78.1964 120.141 78.1474 120.076C78.0985 120.011 78.0495 119.946 78.0005 119.88L77.9189 119.782L77.8373 119.701C77.8373 119.701 77.7231 119.603 77.6741 119.537L77.6251 119.505H77.6088L77.5762 119.488L77.4782 119.407C77.4782 119.407 77.3477 119.309 77.2987 119.26C77.1681 119.162 77.0539 119.064 76.9233 118.966C76.7927 118.868 76.6622 118.77 76.5316 118.656C76.401 118.558 76.2704 118.46 76.1235 118.362C75.8461 118.183 75.5849 118.003 75.3075 117.807C75.03 117.628 74.7852 117.465 74.5567 117.269C74.3282 117.073 74.116 116.893 73.9201 116.697C73.7406 116.502 73.561 116.306 73.4141 116.11C73.2673 115.914 73.153 115.735 73.0714 115.555C72.9898 115.375 72.9245 115.229 72.8755 115.082C72.8592 115.016 72.8429 114.951 72.8266 114.902C72.8266 114.853 72.8266 114.804 72.8102 114.755C72.8102 114.674 72.8102 114.641 72.8102 114.641L72.8266 114.706Z" fill="#E1DCD6"/>
<path d="M52.2613 82.6662C51.1188 82.095 51.4779 80.6423 51.7227 79.712C52.0981 78.341 52.3266 76.9863 51.2984 75.8764C50.5965 76.5456 49.552 77.7371 49.6662 78.798C49.3724 76.5946 48.3278 74.4401 46.1081 73.5914C45.5532 74.7339 45.1941 75.9091 45.5695 77.1658C45.8143 77.9656 46.4835 79.6141 47.3485 79.8263C46.255 79.3856 45.5695 79.304 44.8024 78.9612C45.1941 80.675 45.5532 82.4867 47.5281 82.9763C49.1276 83.3681 50.6945 82.1113 52.245 82.6825L52.2613 82.6662Z" fill="#E1DCD6"/>
<path d="M47.7729 77.9492C47.7729 77.9492 47.7729 77.9982 47.7729 78.0634C47.7729 78.0961 47.7729 78.1451 47.7729 78.2104C47.7729 78.2593 47.7729 78.3409 47.7729 78.4062C47.7729 78.5531 47.8219 78.7326 47.8872 78.9285C47.9198 79.0264 47.9688 79.1243 48.0014 79.2386C48.0504 79.3365 48.0993 79.4508 48.1646 79.565C48.2789 79.7935 48.4421 80.022 48.6216 80.2342C48.8012 80.4627 49.0133 80.6912 49.2419 80.9034C49.4704 81.1156 49.7315 81.3278 50.009 81.5073C50.2701 81.6868 50.5476 81.8827 50.8087 82.0623C50.9393 82.1602 51.0862 82.2418 51.2168 82.3397C51.3473 82.4376 51.4779 82.5356 51.6085 82.6335C51.7391 82.7314 51.8696 82.8293 51.9839 82.911C52.0492 82.9599 52.1145 83.0089 52.1797 83.0415L52.2777 83.1068V83.1231H52.3103L52.3593 83.1558C52.3593 83.1558 52.4735 83.2537 52.5388 83.3027L52.6204 83.368L52.6857 83.4333C52.6857 83.4333 52.7836 83.5312 52.8163 83.5801C52.8652 83.6291 52.8979 83.6944 52.9305 83.7434C52.9632 83.7923 53.0121 83.8576 53.0448 83.9066C53.0774 83.9555 53.1101 84.0208 53.1264 84.0698C53.159 84.1188 53.1917 84.184 53.208 84.233V84.2493C53.208 84.2493 53.208 84.2493 53.2243 84.2493V84.2983C53.2243 84.2983 53.257 84.3636 53.2733 84.3799C53.2733 84.4126 53.2896 84.4289 53.3059 84.4615C53.3059 84.4941 53.3059 84.5105 53.3223 84.5431C53.3223 84.5921 53.3549 84.6411 53.3549 84.69C53.3712 84.788 53.3875 84.9022 53.3875 84.9838C53.3875 85.1797 53.3875 85.3592 53.3875 85.4898C53.3875 85.6367 53.3875 85.7509 53.3875 85.8325C53.3875 85.9141 53.3875 85.9468 53.3875 85.9468C53.3875 85.9468 53.3875 85.9141 53.4039 85.8325C53.4039 85.7509 53.4365 85.653 53.4691 85.5061C53.5018 85.3592 53.5344 85.196 53.5508 84.9838C53.5508 84.8859 53.5508 84.7716 53.5508 84.6574C53.5508 84.5921 53.5508 84.5268 53.5344 84.4778C53.5344 84.4452 53.5344 84.4126 53.5344 84.3799C53.5344 84.3473 53.5344 84.3146 53.5181 84.2983C53.5181 84.2657 53.5181 84.233 53.5018 84.2004V84.1514C53.5018 84.1514 53.5018 84.1514 53.4855 84.1188V84.1025C53.4855 84.1025 53.4202 83.9719 53.4039 83.9066C53.3712 83.8413 53.3549 83.776 53.3223 83.7107C53.2896 83.6454 53.257 83.5802 53.208 83.5149C53.1754 83.4496 53.1427 83.3843 53.0938 83.319C53.0448 83.2537 52.9958 83.1884 52.9469 83.1231L52.8652 83.0252L52.7836 82.9436C52.7836 82.9436 52.6694 82.8457 52.6204 82.7804L52.5715 82.7478H52.5551L52.5225 82.7314L52.4246 82.6498C52.4246 82.6498 52.294 82.5519 52.245 82.5029C52.1145 82.405 52.0002 82.3071 51.8696 82.2091C51.7391 82.1112 51.6085 82.0133 51.4779 81.899C51.3473 81.8011 51.2168 81.7032 51.0699 81.6052C50.7924 81.4257 50.5313 81.2462 50.2538 81.0503C49.9763 80.8708 49.7315 80.7075 49.503 80.5117C49.2745 80.3158 49.0623 80.1363 48.8665 79.9404C48.6869 79.7446 48.5074 79.5487 48.3605 79.3529C48.2136 79.157 48.0993 78.9775 48.0177 78.7979C47.9361 78.6184 47.8708 78.4715 47.8219 78.3246C47.8056 78.2593 47.7892 78.194 47.7729 78.1451C47.7729 78.0961 47.7729 78.0471 47.7566 77.9982C47.7566 77.9166 47.7566 77.8839 47.7566 77.8839L47.7729 77.9492Z" fill="#E1DCD6"/>
<path d="M34.7646 343.06C34.7646 343.06 35.2053 341.934 36.0377 339.828C36.5436 338.686 36.7395 337.723 37.1639 336.401C37.6045 335.193 37.9147 333.446 38.3553 331.635C39.0572 327.913 39.6611 323.278 39.6284 317.859C39.6121 312.457 38.9592 306.271 37.3924 299.693C35.8092 293.132 33.3609 286.13 29.6233 279.389C29.15 278.557 28.6603 277.724 28.1707 276.876L27.9911 276.566L27.9422 276.484L27.8279 276.321L27.3872 275.652L26.5222 274.313C25.347 272.469 24.1882 270.869 22.9967 269.139C20.4995 265.598 17.8391 261.958 15.2603 257.975C12.7467 253.944 10.2169 249.684 8.40519 244.869L7.98082 243.808L7.71968 242.976C7.54014 242.388 7.3606 241.915 7.18107 241.246C6.80567 239.826 6.47924 238.389 6.31602 237.051C5.94062 234.309 5.9243 231.469 6.31602 228.711C7.14842 223.178 9.41713 218.167 12.1265 213.809C13.4812 211.622 14.9338 209.533 16.4354 207.542L18.4756 204.685L19.5202 203.2L20.3852 201.78C25.2491 194.223 27.9258 185.328 27.632 176.318L27.5178 172.94L27.2077 169.447C26.9629 167.113 26.7344 164.779 26.5058 162.461C26.0652 157.777 25.6571 153.06 25.8367 148.343C25.9836 143.642 26.6854 138.926 28.2686 134.584C28.6277 133.49 29.101 132.446 29.558 131.401L29.7375 131.01L29.8191 130.814L29.8681 130.716L29.966 130.52L30.3577 129.818L31.1575 128.431C32.1042 126.57 33.5405 124.758 34.7809 122.979C40.0201 116.271 45.6511 110.852 48.9154 104.585C49.2745 103.785 49.6172 103.002 49.96 102.218L50.4823 101.043L50.6129 100.749C50.6129 100.749 50.6782 100.57 50.7108 100.488L50.9067 99.8679C51.4779 98.1868 51.8207 96.6199 52.1308 95.053C52.7184 91.8867 52.7673 88.7856 52.5715 85.8966C52.1471 80.1024 50.6455 75.157 49.2092 71.1909C47.7566 67.2247 46.3692 64.2052 45.4226 62.1487C44.4433 60.1085 43.9373 59.0149 43.9373 59.0149C43.9373 59.0149 44.5086 60.0758 45.5858 62.0834C46.6467 64.091 48.1646 67.0615 49.8294 70.9624C51.4453 74.8795 53.2243 79.8087 53.9588 85.7661C54.7096 91.7071 54.171 98.6928 51.0209 105.613C47.8382 112.468 42.2399 118.377 37.5882 124.987C36.5436 126.668 35.3848 128.202 34.4708 130.193L33.7363 131.63L33.3772 132.348L33.1487 132.952C32.7733 133.898 32.3979 134.845 32.1368 135.857C30.9127 139.791 30.472 144.051 30.5536 148.392C30.5863 152.75 31.1902 157.238 31.843 161.808C32.1858 164.126 32.5448 166.46 32.8876 168.794L33.3609 172.352L33.671 176.09C34.4871 186.111 31.9083 196.737 26.7017 205.681L25.7551 207.395L24.7758 208.929L22.7519 212.079C21.4298 214.005 20.222 215.947 19.1285 217.922C16.9414 221.839 15.4398 225.871 15.0481 229.804C14.8685 231.779 14.9828 233.721 15.3419 235.631C15.5051 236.627 15.7826 237.475 16.0111 238.308C16.1416 238.765 16.4028 239.385 16.5986 239.907L16.9087 240.723C16.7945 240.413 16.9087 240.691 16.8924 240.642L16.9414 240.74L17.023 240.919L17.2025 241.278C18.8673 245.163 21.234 248.77 23.6822 252.312C26.1957 255.821 28.9704 259.265 31.6798 262.741C33.0508 264.537 34.5034 266.365 35.6949 268.078L36.6252 269.368L37.0823 270.004L37.376 270.429L37.6045 270.788C38.2248 271.734 38.8287 272.681 39.4326 273.628C44.1495 281.234 47.2833 289.068 49.4704 296.511C51.6411 303.953 52.7347 311.053 53.0611 317.435C53.4039 323.817 52.9632 329.448 52.3103 334.083C51.8696 336.417 51.6085 338.408 51.0536 340.334C50.5639 342.178 50.1395 343.941 49.7641 344.904C49.0297 347.059 48.638 348.201 48.638 348.201L34.7483 343.093L34.7646 343.06Z" fill="#E1DCD6"/>
<path d="M28.2523 183.11C28.2523 183.11 28.4644 182.8 28.8562 182.212C29.052 181.918 29.2968 181.559 29.5743 181.135C29.7212 180.923 29.8681 180.694 30.0313 180.449C30.2598 180.172 30.521 179.894 30.7821 179.584C31.3207 178.98 31.9083 178.295 32.5775 177.626C33.2793 177.055 34.0464 176.434 34.8625 175.765C35.7276 175.194 36.6742 174.639 37.6535 174.051C38.6818 173.594 39.7427 173.023 40.8689 172.615C43.1212 171.734 45.5368 171.048 48.0014 170.346C50.4333 169.628 52.9632 168.926 55.3461 167.865C57.6964 166.772 59.9488 165.385 61.8095 163.475C62.2828 163.002 62.6745 162.447 63.1152 161.924C63.5559 161.402 63.9803 160.88 64.3067 160.26L65.3839 158.464L65.5145 158.236C65.5145 158.236 65.4166 158.481 65.4655 158.334V158.301L65.4982 158.236L65.5471 158.105L65.743 157.583L66.151 156.538C66.4775 155.82 66.5754 155.184 66.7386 154.514C66.8855 153.845 67.0814 153.225 67.1956 152.491C67.4078 151.054 67.6853 149.634 67.8322 148.165C68.2076 145.276 68.4687 142.387 68.8604 139.58C69.0073 138.176 69.3174 136.789 69.5296 135.451C69.6439 134.782 69.8724 134.112 70.0356 133.46L70.2967 132.48C70.3457 132.301 70.362 132.203 70.4436 131.958L70.6395 131.517L71.0149 130.636L71.5208 129.754C71.8473 129.151 72.2553 128.677 72.6307 128.155C73.4142 127.192 74.2466 126.327 75.0463 125.544C76.6295 123.96 78.1474 122.573 78.8982 120.99C79.6653 119.407 79.6164 117.774 79.2246 116.55C78.8493 115.326 78.3759 114.396 78.0005 113.808C77.6414 113.204 77.4619 112.878 77.4619 112.878C77.4619 112.878 77.6741 113.188 78.0658 113.776C78.4739 114.347 79.0125 115.228 79.4858 116.469C79.9754 117.693 80.1713 119.456 79.4368 121.218C78.7187 122.997 77.2334 124.548 75.7645 126.213C74.2629 127.894 72.7776 129.689 72.0105 132.04L71.8473 132.497L71.7657 132.905L71.5861 133.835C71.4719 134.471 71.3087 135.075 71.2434 135.745C71.1128 137.067 70.9169 138.389 70.8517 139.792C70.6558 142.567 70.5905 145.456 70.3947 148.41C70.3457 149.879 70.1498 151.397 70.0193 152.915C69.954 153.666 69.7744 154.498 69.6439 155.298C69.497 156.098 69.3827 156.93 69.1216 157.615L68.7951 158.693L68.6319 159.231L68.583 159.362V159.427L68.5503 159.46L68.485 159.623L68.3545 159.884L67.2772 162.006C66.9508 162.74 66.5101 163.393 66.0205 164.046C65.5471 164.683 65.1228 165.385 64.6005 165.988C62.5113 168.453 59.8835 170.33 57.2394 171.766C54.5627 173.17 51.9186 174.1 49.4867 174.998C47.0711 175.863 44.8513 176.663 42.9744 177.544C42.0114 177.969 41.2116 178.491 40.3955 178.899C39.6611 179.405 38.9592 179.894 38.339 180.351C37.7678 180.874 37.2455 181.363 36.7558 181.82C36.3804 182.294 36.0213 182.734 35.7112 183.126C35.548 183.322 35.4011 183.502 35.2542 183.681C35.1073 183.926 34.9768 184.171 34.8462 184.383C34.585 184.824 34.3729 185.199 34.2096 185.509C33.8669 186.113 33.671 186.439 33.671 186.439L28.2849 183.077L28.2523 183.11Z" fill="#E1DCD6"/>
<path d="M14.0361 213.925C14.0361 213.925 13.8403 213.664 13.4975 213.174C13.1548 212.701 12.6162 211.917 11.9796 211.085C11.3268 210.285 10.6412 209.322 9.61298 208.18C8.65001 207.037 7.47485 205.78 6.16913 204.377C4.8634 202.973 3.37813 201.471 1.82758 199.741C0.293347 198.011 -1.35514 196.085 -2.75879 193.768C-4.17877 191.483 -5.35393 188.806 -5.8599 185.982C-6.21897 184.595 -6.20265 183.159 -6.34955 181.755C-6.26794 180.368 -6.34955 178.948 -6.10472 177.593C-5.82726 174.867 -5.15807 172.174 -4.06452 169.628C-3.03626 167.147 -1.73053 164.895 -0.326875 162.822C1.04414 160.733 2.56205 158.888 4.04732 157.175C5.56523 155.51 7.06681 153.976 8.55208 152.686C10.021 151.38 11.441 150.271 12.7467 149.373C13.3833 148.9 14.0198 148.524 14.6074 148.149C15.1787 147.773 15.7336 147.463 16.2396 147.202C17.2352 146.647 18.0513 146.288 18.6225 146.076C19.1774 145.847 19.4712 145.717 19.4712 145.717C19.4712 145.717 19.1938 145.88 18.6552 146.157C18.1165 146.435 17.3494 146.876 16.4191 147.512C15.9458 147.806 15.4398 148.181 14.9012 148.606C14.3626 149.014 13.775 149.454 13.2037 149.977C12.0123 150.989 10.7392 152.196 9.44977 153.616C8.12772 155.004 6.83831 156.636 5.5489 158.382C4.29214 160.161 3.01906 162.071 1.92551 164.177C0.815638 166.249 -0.17998 168.469 -0.865488 170.77C-1.56732 172.99 -1.92639 175.389 -1.91007 177.838C-1.99168 179.062 -1.79582 180.221 -1.74685 181.412C-1.48571 182.538 -1.42042 183.714 -0.99606 184.758C-0.392161 186.913 0.701387 188.806 2.00712 190.503C3.2802 192.217 4.8634 193.719 6.43027 195.155C7.99715 196.575 9.61298 197.913 11.0819 199.203C12.5672 200.492 13.9382 201.7 15.146 202.842C16.3375 203.92 17.3984 205.095 18.2634 205.96C19.0795 206.841 19.6181 207.478 20.0425 207.935C20.4505 208.392 20.6627 208.637 20.6627 208.637L14.0525 213.908L14.0361 213.925Z" fill="#E1DCD6"/>
</g>
</g>
<defs>
<clipPath id="clip0_160_1838">
<rect width="335" height="342" rx="34" fill="white"/>
</clipPath>
<clipPath id="clip1_160_1838">
<rect width="289.17" height="105.584" fill="white" transform="matrix(0 -1 1 0 -15 348.17)"/>
</clipPath>
</defs>
</svg>
