<svg width="18" height="28" viewBox="0 0 18 28" fill="none" xmlns="http://www.w3.org/2000/svg">
<path d="M15.5687 2.05404H12.6239V1.30271C12.6239 0.80402 12.2195 0.400024 11.7212 0.400024H6.27876C5.78046 0.400024 5.37646 0.80402 5.37646 1.30271V2.05404H2.43168C1.20106 2.05404 0.200195 3.05491 0.200195 4.28591V25.3957C0.200195 26.626 1.20106 27.6272 2.43168 27.6272H15.5687C16.7993 27.6272 17.8002 26.626 17.8002 25.3957V4.28591C17.8002 3.05491 16.7993 2.05404 15.5687 2.05404ZM16.8253 25.4625C16.8253 26.1494 16.2665 26.7082 15.5796 26.7082H2.42081C1.7339 26.7082 1.17506 26.1494 1.17506 25.4625V4.21877C1.17506 3.53186 1.7339 2.97302 2.42081 2.97302H15.5796C16.2665 2.97302 16.8253 3.53186 16.8253 4.21877V25.4625Z" fill="#4CC14C"/>
<path d="M15.5864 4.47778H2.41455V9.13479H15.5864V4.47778Z" fill="#4CC14C"/>
<path d="M15.5864 9.83401H2.41455V14.491H15.5864V9.83401Z" fill="#4CC14C"/>
<path d="M15.5864 15.1903H2.41455V19.8473H15.5864V15.1903Z" fill="#4CC14C"/>
<path d="M15.5864 20.5465H2.41455V25.2035H15.5864V20.5465Z" fill="#4CC14C"/>
</svg>
