<svg width="150" height="112" viewBox="0 0 150 112" fill="none" xmlns="http://www.w3.org/2000/svg">
<g opacity="0.4">
<path d="M66.0443 77.8571C66.0443 95.5763 53.6946 109 34.9015 109C16.1084 109 0 93.9655 0 67.1182C0 33.8276 25.2365 5.36945 57.9902 0V19.867C39.197 23.6256 25.2365 37.0493 25.2365 52.6207C28.4581 50.4729 32.7537 48.862 39.734 48.862C53.6946 48.862 66.0443 59.064 66.0443 77.8571Z" fill="#ECE6E0"/>
<path d="M149.721 77.8571C149.721 95.5763 137.371 109 118.578 109C99.7849 109 83.6765 93.9655 83.6765 67.1182C83.6765 33.8276 108.913 5.36945 141.667 0V19.867C122.874 23.6256 108.913 37.0493 108.913 52.6207C112.135 50.4729 116.43 48.862 123.41 48.862C137.371 48.862 149.721 59.064 149.721 77.8571Z" fill="#ECE6E0"/>
</g>
</svg>
