<svg width="6" height="6" viewBox="0 0 6 6" fill="none" xmlns="http://www.w3.org/2000/svg">
<path d="M0.413332 3.41441C0.391999 3.41441 0.370665 3.37696 0.349332 3.30208C0.338665 3.21649 0.333332 3.12556 0.333332 3.02927C0.333332 2.94369 0.338665 2.8688 0.349332 2.80461C0.359999 2.72972 0.375999 2.69228 0.397332 2.69228H5.69333C5.71467 2.69228 5.73067 2.72972 5.74133 2.80461C5.76267 2.8795 5.77333 2.95973 5.77333 3.04532C5.77333 3.1416 5.76267 3.22719 5.74133 3.30208C5.73067 3.37696 5.71467 3.41441 5.69333 3.41441H0.413332ZM3.40533 5.69311C3.40533 5.7145 3.35733 5.7359 3.26133 5.7573C3.176 5.76799 3.08533 5.77334 2.98933 5.77334C2.78667 5.77334 2.68533 5.7573 2.68533 5.7252V0.41358C2.68533 0.392184 2.72267 0.376136 2.79733 0.365438C2.872 0.344042 2.95733 0.333344 3.05333 0.333344C3.13867 0.333344 3.21867 0.344042 3.29333 0.365438C3.368 0.376136 3.40533 0.392184 3.40533 0.41358V5.69311Z" fill="#C52226"/>
</svg>
