<svg width="335" height="258" viewBox="0 0 335 258" fill="none" xmlns="http://www.w3.org/2000/svg">
<g clip-path="url(#clip0_186_35)">
<path d="M36.0878 -10.6811C36.0878 -10.6811 35.8794 -9.48984 35.4971 -7.25828C35.3361 -6.01917 35.0033 -5.09455 34.6793 -3.7444C34.4285 -2.4834 33.7864 -0.829964 33.222 0.947082C31.8889 4.49161 29.9974 8.76633 27.155 13.3799C24.3351 17.988 20.5642 22.935 15.8089 27.7419C11.0481 32.5265 5.31922 37.2383 -1.37588 41.0572C-2.2127 41.5227 -3.06346 41.9797 -3.92271 42.4506L-4.2372 42.6224L-4.32143 42.6667L-4.50383 42.7468L-5.22799 43.0898L-6.66234 43.7842C-8.62449 44.7498 -10.4455 45.5148 -12.3623 46.3743C-16.3358 48.1039 -20.4997 49.8323 -24.7719 51.8961C-29.0137 54.0356 -33.3881 56.3618 -37.4371 59.5353L-38.3508 60.2215L-39.0062 60.7972C-39.4649 61.206 -39.8641 61.5172 -40.3651 61.9958C-41.4234 63.0143 -42.4484 64.0721 -43.283 65.131C-45.028 67.2792 -46.517 69.6976 -47.6149 72.2581C-49.7775 77.4186 -50.4413 82.8788 -50.3895 88.01C-50.3678 90.5826 -50.2116 93.1223 -49.9627 95.6038L-49.7028 99.1043L-49.5816 100.916L-49.58 102.579C-49.3487 111.563 -51.6815 120.554 -56.612 128.101L-58.4645 130.928L-60.5436 133.752C-61.9651 135.619 -63.3726 137.495 -64.7717 139.357C-67.5813 143.131 -70.3799 146.95 -72.6764 151.074C-74.9924 155.167 -76.8426 159.562 -77.7447 164.095C-78.0059 165.216 -78.1439 166.354 -78.296 167.484L-78.346 167.912L-78.378 168.122L-78.387 168.231L-78.4051 168.449L-78.4348 169.252L-78.472 170.853C-78.6295 172.935 -78.3431 175.229 -78.2071 177.394C-77.2142 185.847 -75.2169 193.403 -75.6827 200.454C-75.7913 201.324 -75.9053 202.171 -76.0193 203.019L-76.1833 204.294L-76.2243 204.613C-76.2243 204.613 -76.2618 204.8 -76.2763 204.887L-76.4311 205.519C-76.8161 207.252 -77.337 208.769 -77.8859 210.269C-79.0283 213.28 -80.5972 215.955 -82.2651 218.322C-85.6372 223.053 -89.489 226.499 -92.7763 229.143C-96.0777 231.777 -98.8315 233.637 -100.709 234.903C-102.605 236.138 -103.605 236.809 -103.605 236.809C-103.605 236.809 -102.566 236.199 -100.603 235.043C-98.6537 233.879 -95.8137 232.129 -92.365 229.66C-88.9497 227.152 -84.8692 223.864 -81.1474 219.155C-77.42 214.468 -74.252 208.219 -73.3494 200.669C-72.5087 193.158 -74.2238 185.201 -74.7655 177.136C-74.7849 175.157 -74.9783 173.244 -74.7251 171.068L-74.6067 169.459L-74.5406 168.659L-74.4222 168.024C-74.2513 167.02 -74.0804 166.016 -73.778 165.016C-72.781 161.019 -70.9449 157.15 -68.6202 153.482C-66.3289 149.775 -63.4815 146.253 -60.55 142.687C-59.0533 140.884 -57.5342 139.077 -56.029 137.26L-53.7765 134.465L-51.5702 131.432C-45.6677 123.293 -42.3526 112.874 -42.1562 102.526L-42.0751 100.57L-42.115 98.7502L-42.2084 95.0072C-42.3378 92.6747 -42.3611 90.3877 -42.2698 88.1321C-42.1042 83.6487 -41.2934 79.4238 -39.5851 75.859C-38.7128 74.0781 -37.6063 72.4777 -36.3076 71.0324C-35.6511 70.2664 -34.9731 69.6852 -34.3455 69.0926C-33.9966 68.7699 -33.4513 68.3755 -33.0126 68.031L-32.3238 67.4947C-32.5825 67.7003 -32.3407 67.5226 -32.3801 67.5559L-32.2874 67.4977L-32.1244 67.3866L-31.7845 67.173C-28.3442 64.7183 -24.4484 62.8651 -20.5167 61.1101C-16.5461 59.417 -12.3864 57.9152 -8.26542 56.3517C-6.16134 55.5296 -3.97055 54.7219 -2.06227 53.8763L-0.597559 53.2577L0.123586 52.9511L0.595046 52.7411L0.976812 52.5529C1.9985 52.0661 3.00624 51.5708 4.01398 51.0755C11.9952 47.026 18.7423 41.9589 24.4769 36.7349C30.1976 31.5024 34.8197 26.0033 38.4133 20.7194C42.0208 15.444 44.569 10.4033 46.4186 6.10313C47.2543 3.87977 48.0654 2.04255 48.5915 0.10853C49.131 -1.72184 49.684 -3.44857 49.8633 -4.46645C50.3547 -6.68898 50.6134 -7.86875 50.6134 -7.86875L36.0908 -10.7175L36.0878 -10.6811Z" fill="#E1DCD6"/>
</g>
<g clip-path="url(#clip1_186_35)">
<path d="M31.4325 276.709C31.4325 276.709 31.802 275.557 32.5012 273.404C32.9347 272.232 33.07 271.258 33.4109 269.912C33.7753 268.679 33.9756 266.917 34.3022 265.081C34.7701 261.323 35.0831 256.659 34.7119 251.253C34.3579 245.862 33.3197 239.729 31.3448 233.263C29.3547 226.813 26.4736 219.978 22.3219 213.484C21.7975 212.683 21.2568 211.882 20.7151 211.066L20.5165 210.768L20.4625 210.689L20.3383 210.533L19.8567 209.893L18.9097 208.611C17.6215 206.844 16.365 205.32 15.0677 203.668C12.354 200.289 9.47134 196.823 6.64867 193.009C3.8881 189.143 1.09695 185.049 -1.01213 180.357L-1.50197 179.325L-1.81462 178.51C-2.03053 177.935 -2.2393 177.474 -2.46031 176.817C-2.92372 175.424 -3.33928 174.01 -3.58583 172.685C-4.13186 169.972 -4.32565 167.138 -4.10709 164.361C-3.62212 158.787 -1.67102 153.644 0.760713 149.125C1.97607 146.858 3.29528 144.682 4.66948 142.601L6.52718 139.622L7.47689 138.075L8.2515 136.604C12.6335 128.757 14.7491 119.712 13.8928 110.739L13.5676 107.374L13.0398 103.907C12.6496 101.593 12.2757 99.278 11.9028 96.9792C11.1702 92.3316 10.4681 87.6493 10.3525 82.9304C10.2053 78.2298 10.611 73.4782 11.9198 69.0462C12.2098 67.9323 12.6169 66.8602 13.0077 65.7891L13.1624 65.3869L13.2316 65.1864L13.2744 65.0856L13.3599 64.8839L13.707 64.159L14.4185 62.7244C15.247 60.8082 16.5672 58.9103 17.6941 57.0572C22.5038 50.0347 27.7851 44.2746 30.6513 37.8153C30.9597 36.9947 31.2528 36.1914 31.5459 35.388L31.9938 34.1825L32.1057 33.8812C32.1057 33.8812 32.1597 33.6979 32.1871 33.6144L32.3439 32.9831C32.8089 31.2696 33.0531 29.6844 33.2647 28.1012C33.6532 24.9043 33.5082 21.8062 33.1322 18.9351C32.3466 13.1788 30.5388 8.33687 28.8574 4.46824C27.1598 0.600625 25.5864 -2.32627 24.5131 -4.3196C23.4082 -6.2946 22.8349 -7.3544 22.8349 -7.3544C22.8349 -7.3544 23.4713 -6.33127 24.6719 -4.39495C25.8562 -2.45761 27.5568 0.412234 29.4622 4.20144C31.3197 8.00997 33.4033 12.8182 34.5087 18.7181C35.6293 24.6006 35.5284 31.6063 32.817 38.71C30.0689 45.7506 24.8508 51.9973 20.6214 58.8854C19.6839 60.6285 18.6232 62.2322 17.8354 64.2766L17.1922 65.756L16.8787 66.4952L16.6884 67.1122C16.3729 68.0805 16.0574 69.0487 15.86 70.075C14.8841 74.0774 14.7105 78.3565 15.0633 82.6845C15.3682 87.0318 16.2515 91.4737 17.1887 95.994C17.6756 98.2857 18.1799 100.593 18.6678 102.901L19.3626 106.422L19.9057 110.133C21.3465 120.084 19.4368 130.85 14.7994 140.102L13.9617 141.872L13.0802 143.464L11.2572 146.734C10.0581 148.739 8.97403 150.753 8.00605 152.793C6.06805 156.839 4.82136 160.956 4.67625 164.907C4.62049 166.889 4.85591 168.82 5.33363 170.704C5.55875 171.687 5.88872 172.517 6.1688 173.333C6.32768 173.781 6.62708 174.384 6.8552 174.893L7.2157 175.688C7.08229 175.386 7.21367 175.656 7.19432 175.608L7.2493 175.702L7.34198 175.876L7.5436 176.224C9.44793 179.996 12.0354 183.449 14.7002 186.83C17.4281 190.176 20.4126 193.439 23.334 196.74C24.8145 198.446 26.3785 200.18 27.6748 201.815L28.6839 203.044L29.1798 203.651L29.4995 204.056L29.75 204.4C30.4282 205.306 31.0901 206.213 31.752 207.12C36.935 214.417 40.5523 222.04 43.2003 229.331C45.832 236.624 47.3671 243.641 48.0918 249.99C48.8327 256.338 48.7448 261.986 48.3829 266.653C48.089 269.01 47.9528 271.013 47.5193 272.97C47.1459 274.841 46.8325 276.627 46.518 277.612C45.9197 279.808 45.6001 280.973 45.6001 280.973L31.4183 276.742L31.4325 276.709Z" fill="#E1DCD6"/>
<path d="M22.8237 189.398C23.0979 186.74 26.2062 186.343 28.184 186.148C31.1211 185.855 33.9423 185.305 35.3506 182.497C33.5333 181.6 30.4527 180.454 28.4747 181.456C32.5623 179.256 35.9978 175.602 36.0266 170.616C33.3781 170.375 30.8291 170.536 28.6681 172.204C27.2796 173.277 24.572 175.794 24.7856 177.664C24.8537 175.189 24.5203 173.787 24.626 172.03C21.5862 174.072 18.2996 176.112 18.8066 180.346C19.2185 183.763 22.8097 185.941 22.8237 189.398Z" fill="#E1DCD6"/>
<path d="M28.7365 177.102C28.7365 177.102 28.6505 177.124 28.4993 177.165C28.4223 177.189 28.3274 177.208 28.2177 177.243C28.1052 177.286 27.9809 177.335 27.8419 177.4C27.561 177.537 27.2449 177.724 26.9001 178C26.7291 178.134 26.5613 178.289 26.3789 178.458C26.2143 178.634 26.029 178.813 25.8708 179.03C25.5244 179.436 25.2027 179.919 24.8963 180.446C24.5899 180.974 24.3078 181.549 24.0618 182.166C23.8187 182.774 23.5913 183.457 23.4409 184.115C23.2726 184.767 23.0986 185.437 22.9363 186.101C22.8508 186.431 22.7802 186.777 22.6886 187.095C22.594 187.423 22.5024 187.741 22.4078 188.069C22.3072 188.385 22.2245 188.706 22.1418 189.028C22.0929 189.181 22.0591 189.349 22.0102 189.503L21.9355 189.737L21.9362 189.797L21.9275 189.824C21.9275 189.824 21.9362 189.797 21.9333 189.806L21.9275 189.824L21.8902 189.941C21.8323 190.092 21.7745 190.242 21.7257 190.396L21.6538 190.621L21.5548 190.808C21.4966 190.929 21.4356 191.058 21.3774 191.179C21.3283 191.302 21.2254 191.408 21.1583 191.526C21.0822 191.64 21.0062 191.755 20.933 191.861C20.8509 191.963 20.7509 192.06 20.6687 192.163C20.5777 192.263 20.4955 192.366 20.4163 192.46L20.384 192.499C20.384 192.499 20.3693 192.514 20.3575 192.52L20.2869 192.587C20.2428 192.632 20.1897 192.675 20.1456 192.72C20.1015 192.766 20.0485 192.808 20.0073 192.845C19.9571 192.878 19.9187 192.906 19.8686 192.939C19.78 193 19.6976 193.073 19.6001 193.131C19.4141 193.25 19.2249 193.348 19.0415 193.428C18.6746 193.587 18.3281 193.714 18.0469 193.822C17.7656 193.93 17.5467 194.028 17.3987 194.09C17.2479 194.161 17.1769 194.197 17.1769 194.197C17.1769 194.197 17.26 194.184 17.4202 194.147C17.5803 194.109 17.8059 194.082 18.1086 194.031C18.4023 193.977 18.7706 193.937 19.1825 193.821C19.396 193.771 19.6092 193.691 19.846 193.598C19.9585 193.555 20.0797 193.485 20.1979 193.424C20.257 193.393 20.319 193.353 20.3782 193.323C20.4283 193.289 20.4814 193.247 20.5316 193.213C20.5817 193.18 20.6348 193.137 20.6939 193.107L20.7706 193.052C20.7706 193.052 20.7824 193.046 20.8236 193.009L20.8649 192.973C20.9738 192.879 21.0739 192.782 21.1828 192.688C21.2918 192.594 21.4037 192.491 21.5065 192.385C21.6034 192.267 21.7002 192.149 21.7999 192.022C21.8996 191.895 22.0143 191.783 22.09 191.638C22.1747 191.496 22.2622 191.346 22.3558 191.207L22.4872 190.98L22.5769 190.761C22.6437 190.613 22.6986 190.472 22.7654 190.324L22.8028 190.207L22.8175 190.192L22.8318 190.147L22.8405 190.12L22.8577 190.066L22.9324 189.831C22.9813 189.678 23.0331 189.515 23.0848 189.353C23.1854 189.037 23.2889 188.713 23.3952 188.379C23.4987 188.054 23.6051 187.72 23.6996 187.393C23.806 187.059 23.8737 186.723 23.9592 186.392C24.1125 185.725 24.2776 185.052 24.428 184.394C24.5812 183.728 24.7233 183.127 24.9338 182.528C25.1414 181.939 25.3523 181.37 25.5963 180.852C25.8494 180.337 26.0848 179.846 26.3628 179.438C26.6258 179.016 26.9101 178.65 27.1744 178.348C27.4476 178.048 27.7125 177.805 27.9455 177.632C28.0605 177.55 28.1727 177.477 28.2641 177.407C28.3616 177.349 28.4562 177.3 28.5271 177.263C28.669 177.19 28.7429 177.144 28.7429 177.144L28.7365 177.102Z" fill="#E1DCD6"/>
<path d="M9.0399 131.543C8.78247 129.048 5.8647 128.675 4.00811 128.492C1.25114 128.216 -1.39716 127.701 -2.71909 125.065C-1.01318 124.223 1.87853 123.147 3.73524 124.087C-0.101739 122.022 -3.32661 118.592 -3.3537 113.912C-0.867538 113.686 1.52522 113.836 3.5537 115.403C4.85711 116.41 7.39876 118.773 7.19821 120.528C7.13426 118.205 7.44722 116.889 7.348 115.24C10.2015 117.156 13.2866 119.071 12.8107 123.046C12.4241 126.253 9.05298 128.297 9.0399 131.543Z" fill="#E1DCD6"/>
<path d="M3.48957 120.002C3.48957 120.002 3.57028 120.023 3.71219 120.061C3.78449 120.084 3.8736 120.102 3.9765 120.134C4.0821 120.175 4.19881 120.221 4.32931 120.282C4.59301 120.411 4.8897 120.586 5.21338 120.845C5.37387 120.971 5.53136 121.116 5.70264 121.276C5.85712 121.44 6.0311 121.608 6.17957 121.812C6.50472 122.193 6.80675 122.646 7.09436 123.142C7.38198 123.637 7.64678 124.177 7.87767 124.756C8.10587 125.327 8.31934 125.968 8.46051 126.585C8.61848 127.197 8.78185 127.826 8.93412 128.449C9.01445 128.76 9.08068 129.084 9.16672 129.383C9.25546 129.69 9.3415 129.99 9.43023 130.297C9.52467 130.593 9.60231 130.895 9.67995 131.197C9.72582 131.341 9.75759 131.499 9.80346 131.643L9.87361 131.863L9.873 131.919L9.8811 131.945C9.8811 131.945 9.873 131.919 9.8757 131.928L9.8811 131.945L9.91617 132.055C9.97045 132.196 10.0247 132.337 10.0706 132.481L10.138 132.693L10.231 132.868C10.2856 132.981 10.3429 133.103 10.3975 133.216C10.4436 133.332 10.5402 133.431 10.6032 133.542C10.6746 133.649 10.746 133.757 10.8147 133.856C10.8917 133.953 10.9856 134.044 11.0627 134.14C11.1482 134.234 11.2253 134.33 11.2997 134.418L11.33 134.455C11.33 134.455 11.3438 134.469 11.3549 134.475L11.4212 134.538C11.4626 134.581 11.5124 134.62 11.5537 134.663C11.5951 134.706 11.6449 134.746 11.6836 134.78C11.7307 134.811 11.7667 134.837 11.8138 134.868C11.8969 134.926 11.9743 134.994 12.0658 135.048C12.2404 135.16 12.418 135.252 12.5902 135.327C12.9346 135.477 13.2598 135.596 13.5238 135.697C13.7879 135.799 13.9934 135.891 14.1323 135.949C14.2739 136.015 14.3405 136.05 14.3405 136.05C14.3405 136.05 14.2625 136.037 14.1121 136.002C13.9618 135.967 13.75 135.942 13.4659 135.894C13.1902 135.843 12.8445 135.805 12.4578 135.697C12.2574 135.65 12.0573 135.574 11.835 135.487C11.7294 135.447 11.6157 135.381 11.5047 135.323C11.4492 135.295 11.391 135.258 11.3355 135.229C11.2884 135.197 11.2386 135.157 11.1915 135.126C11.1444 135.094 11.0946 135.055 11.0391 135.026L10.9671 134.974C10.9671 134.974 10.956 134.969 10.9173 134.934L10.8786 134.9C10.7763 134.812 10.6824 134.721 10.5801 134.633C10.4778 134.544 10.3729 134.447 10.2763 134.348C10.1854 134.237 10.0945 134.127 10.0009 134.007C9.90733 133.888 9.79965 133.783 9.72857 133.647C9.64909 133.514 9.56691 133.373 9.47903 133.242L9.35577 133.03L9.27151 132.824C9.20884 132.685 9.15726 132.552 9.09459 132.414L9.05951 132.304L9.04571 132.29L9.03222 132.247L9.02412 132.222L9.00793 132.171L8.93778 131.951C8.89191 131.807 8.84334 131.655 8.79477 131.502C8.70033 131.206 8.60319 130.901 8.50335 130.588C8.40621 130.283 8.30638 129.97 8.21764 129.662C8.1178 129.349 8.05427 129.033 7.97393 128.723C7.83007 128.097 7.6751 127.465 7.53393 126.848C7.39006 126.222 7.25668 125.658 7.05909 125.096C6.8642 124.542 6.6663 124.009 6.43719 123.522C6.19968 123.039 5.97866 122.578 5.71772 122.195C5.47089 121.799 5.20393 121.456 4.95587 121.172C4.69941 120.89 4.45073 120.663 4.23205 120.5C4.12405 120.423 4.01876 120.354 3.93296 120.288C3.84146 120.234 3.75266 120.188 3.68606 120.154C3.55286 120.085 3.48356 120.042 3.48356 120.042L3.48957 120.002Z" fill="#E1DCD6"/>
<path d="M30.3188 88.0926C32.3217 83.9156 37.6299 85.1145 40.9742 85.9703C45.942 87.2369 50.8707 88.0161 54.8134 84.2674C52.3704 81.7231 48.0105 78.0204 44.1944 78.4806C52.1564 77.3179 59.9048 73.3918 62.8692 65.2669C58.6847 63.3005 54.4284 62.0471 49.9231 63.4881C47.0278 64.4152 41.1336 66.9161 40.3882 70.0972C41.9479 66.095 42.2235 63.6082 43.424 60.8019C37.2657 62.3286 30.7045 63.7081 29.0551 70.9235C27.7284 76.7484 32.319 82.4383 30.3188 88.0926Z" fill="#E1DCD6"/>
<path d="M47.1691 71.5269C47.1691 71.5269 47.0159 71.5116 46.7452 71.4881C46.6049 71.4829 46.4388 71.4575 46.2398 71.4482C46.0308 71.4519 45.7989 71.4585 45.5341 71.4812C44.9947 71.5395 44.3695 71.6558 43.6447 71.9024C43.2873 72.0191 42.9228 72.172 42.5255 72.3409C42.154 72.5298 41.7467 72.7117 41.3611 72.9729C40.5583 73.4289 39.7503 74.0264 38.9412 74.7061C38.1321 75.3857 37.3347 76.1577 36.5721 77.019C35.8194 77.8673 35.0486 78.8469 34.4182 79.8318C33.7618 80.7965 33.0856 81.7874 32.4322 82.7752C32.099 83.2641 31.7818 83.7861 31.4457 84.2519C31.0996 84.7308 30.7635 85.1966 30.4174 85.6754C30.0684 86.1312 29.7452 86.6071 29.4221 87.083C29.2525 87.3043 29.0989 87.5588 28.9294 87.7802L28.6701 88.1188L28.6361 88.217L28.6062 88.2561C28.6062 88.2561 28.6361 88.217 28.6261 88.23L28.6062 88.2561L28.4766 88.4254C28.2941 88.6367 28.1117 88.848 27.9421 89.0694L27.6928 89.3949L27.4218 89.6412C27.2563 89.8034 27.0809 89.9787 26.9155 90.1409C26.7629 90.3131 26.5329 90.4251 26.3545 90.5772C26.1632 90.7194 25.9719 90.8615 25.7906 90.9906C25.5964 91.1096 25.3763 91.2085 25.182 91.3276C24.9749 91.4365 24.7806 91.5556 24.5964 91.6616L24.5207 91.7066C24.5207 91.7066 24.4878 91.7226 24.4649 91.7256L24.3105 91.7925C24.2119 91.8405 24.1004 91.8784 24.0018 91.9264C23.9032 91.9744 23.7917 92.0123 23.7031 92.0473C23.6016 92.0722 23.5229 92.0942 23.4214 92.1191C23.2412 92.1659 23.0639 92.2358 22.8708 92.2726C22.4975 92.3563 22.1312 92.4038 21.7849 92.4254C21.0922 92.4684 20.4523 92.4694 19.9298 92.4786C19.4074 92.4877 18.9923 92.5182 18.7147 92.5308C18.427 92.5564 18.2897 92.5742 18.2897 92.5742C18.2897 92.5742 18.4329 92.6025 18.7165 92.6361C19.0001 92.6696 19.384 92.7605 19.9083 92.8566C20.4197 92.9427 21.0444 93.0961 21.7847 93.1525C22.1628 93.1972 22.5579 93.1928 22.9987 93.1825C23.2077 93.1788 23.4466 93.1361 23.6756 93.1063C23.79 93.0915 23.9145 93.0636 24.0289 93.0487C24.1305 93.0238 24.242 92.9859 24.3435 92.961C24.4451 92.9361 24.5566 92.8981 24.6711 92.8833L24.8284 92.8394C24.8284 92.8394 24.8513 92.8364 24.9399 92.8015L25.0285 92.7665C25.2615 92.6776 25.4816 92.5787 25.7146 92.4898C25.9476 92.4009 26.1906 92.299 26.4206 92.187C26.6477 92.052 26.8748 91.917 27.1119 91.7689C27.349 91.6209 27.6019 91.5059 27.8102 91.3147C28.0314 91.1335 28.2626 90.9393 28.4968 90.7682L28.8435 90.4769L29.1187 90.1715C29.314 89.9702 29.4865 89.7719 29.6819 89.5706L29.8115 89.4013L29.8444 89.3853L29.8942 89.3202L29.9241 89.2812L29.984 89.203L30.2432 88.8644C30.4128 88.6431 30.5923 88.4087 30.7718 88.1743C31.1208 87.7185 31.4798 87.2497 31.8487 86.7679C32.2077 86.2991 32.5767 85.8173 32.9227 85.3384C33.2917 84.8566 33.599 84.3476 33.9322 83.8587C34.5726 82.8609 35.236 81.86 35.8664 80.8751C36.5069 79.8772 37.0905 78.9806 37.7844 78.1282C38.4684 77.2888 39.1454 76.4856 39.8471 75.7846C40.5617 75.0938 41.2335 74.4319 41.9259 73.9315C42.6024 73.3981 43.2808 72.9699 43.8893 72.6329C44.5108 72.3059 45.0854 72.0671 45.5673 71.9225C45.8032 71.8567 46.0292 71.8039 46.2194 71.744C46.4125 71.7072 46.5957 71.6834 46.733 71.6656C47.0077 71.6299 47.1551 71.5991 47.1551 71.5991L47.1691 71.5269Z" fill="#E1DCD6"/>
</g>
<defs>
<clipPath id="clip0_186_35">
<rect width="55" height="63" fill="white"/>
</clipPath>
<clipPath id="clip1_186_35">
<rect width="335" height="258" rx="34" transform="matrix(1 0 0 -1 0 258)" fill="white"/>
</clipPath>
</defs>
</svg>
