<svg width="335" height="214" viewBox="0 0 335 214" fill="none" xmlns="http://www.w3.org/2000/svg">
<g clip-path="url(#clip0_160_1797)">
<path d="M34.8336 -11.5682C34.8336 -11.5682 34.8734 -10.3595 34.9559 -8.09692C35.0518 -6.85107 34.9152 -5.87791 34.8743 -4.49002C34.8869 -3.2044 34.5967 -1.45457 34.4079 0.40037C33.8283 4.14268 32.8515 8.714 31.0133 13.8116C29.1959 18.8992 26.5171 24.5131 22.846 30.1914C19.165 35.8488 14.5215 41.6332 8.74945 46.7413C8.02559 47.3682 7.28633 47.9896 6.54163 48.6264L6.26894 48.8588L6.19556 48.9194L6.03341 49.0352L5.39475 49.5191L4.13284 50.4923C2.4098 51.839 0.783812 52.9604 -0.916501 54.194C-4.45206 56.7 -8.17415 59.2439 -11.9336 62.1382C-15.6479 65.1003 -19.4538 68.2725 -22.7677 72.2073L-23.5216 73.0659L-24.0455 73.7636C-24.4107 74.2576 -24.7379 74.644 -25.1303 75.2149C-25.9579 76.4284 -26.7447 77.6735 -27.345 78.8808C-28.6135 81.3406 -29.5761 84.0125 -30.1269 86.7435C-31.1877 92.2374 -30.7202 97.7179 -29.6196 102.73C-29.0719 105.244 -28.3993 107.698 -27.6479 110.076L-26.6773 113.449L-26.1879 115.198L-25.846 116.825C-23.7813 125.571 -24.2249 134.85 -27.507 143.245L-28.7416 146.392L-30.199 149.582C-31.2083 151.7 -32.2022 153.825 -33.1907 155.933C-35.1686 160.202 -37.1266 164.513 -38.5307 169.02C-39.9601 173.5 -40.8718 178.181 -40.8274 182.802C-40.8536 183.953 -40.7558 185.095 -40.6734 186.233L-40.6348 186.662L-40.6232 186.874L-40.6097 186.982L-40.5827 187.2L-40.4475 187.992L-40.1563 189.567C-39.8845 191.636 -39.1347 193.823 -38.5587 195.914C-35.857 203.986 -32.356 210.973 -31.3691 217.97C-31.2974 218.844 -31.2355 219.697 -31.1737 220.55L-31.0733 221.832L-31.0482 222.152C-31.0482 222.152 -31.0466 222.343 -31.043 222.431L-31.0652 223.081C-31.0874 224.856 -31.2869 226.448 -31.5172 228.028C-32.0194 231.21 -33.0076 234.149 -34.1559 236.808C-36.4886 242.128 -39.5537 246.29 -42.2307 249.55C-44.923 252.804 -47.2381 255.188 -48.8165 256.811C-50.4202 258.408 -51.2619 259.27 -51.2619 259.27C-51.2619 259.27 -50.3695 258.46 -48.6844 256.927C-47.0146 255.388 -44.5928 253.094 -41.7222 249.972C-38.8923 246.818 -35.571 242.765 -32.8916 237.393C-30.2021 232.043 -28.3798 225.278 -29.0412 217.703C-29.7552 210.179 -33.0621 202.741 -35.2425 194.958C-35.6666 193.025 -36.2473 191.192 -36.4448 189.01L-36.6581 187.411L-36.7571 186.614L-36.7711 185.969C-36.8092 184.951 -36.8474 183.933 -36.756 182.892C-36.598 178.776 -35.5926 174.613 -34.0675 170.547C-32.5832 166.45 -30.5168 162.42 -28.3769 158.329C-27.2808 156.258 -26.1637 154.178 -25.0621 152.092L-23.4291 148.895L-21.8901 145.475C-17.7781 136.3 -16.6651 125.423 -18.5902 115.254L-18.911 113.323L-19.3225 111.55L-20.1797 107.905C-20.7837 105.648 -21.2745 103.414 -21.6467 101.188C-22.4019 96.7655 -22.4728 92.4641 -21.5301 88.6252C-21.0406 86.7035 -20.2851 84.9105 -19.3096 83.2301C-18.8237 82.3459 -18.279 81.6383 -17.7859 80.9298C-17.5104 80.5425 -17.0573 80.0449 -16.6985 79.6179L-16.1339 78.952C-16.3451 79.2062 -16.1448 78.9827 -16.1765 79.0235L-16.0977 78.9475L-15.9609 78.8054L-15.6719 78.5268C-12.8067 75.42 -9.37248 72.8089 -5.88308 70.2866C-2.34302 67.8168 1.42145 65.4956 5.13526 63.1219C7.02661 61.8866 9.00578 60.6478 10.7007 59.4296L12.0078 58.5244L12.6509 58.0767L13.0694 57.7747L13.4046 57.5124C14.3051 56.8268 15.1902 56.1358 16.0752 55.4448C23.059 49.8478 28.6264 43.5073 33.1708 37.2204C37.6997 30.928 41.0988 24.5995 43.5352 18.6921C45.9869 12.7901 47.4497 7.33465 48.3803 2.74701C48.7434 0.39969 49.1614 -1.56462 49.2806 -3.56537C49.4342 -5.46742 49.6221 -7.27075 49.5894 -8.30379C49.6156 -10.5798 49.6274 -11.7876 49.6274 -11.7876L34.8291 -11.6044L34.8336 -11.5682Z" fill="#E1DCD6"/>
</g>
<defs>
<clipPath id="clip0_160_1797">
<rect width="335" height="214" rx="34" fill="white"/>
</clipPath>
</defs>
</svg>
